<?xml version="1.0" encoding="utf-8"?>
<!-- Generator: Adobe Illustrator 16.0.0, SVG Export Plug-In . SVG Version: 6.00 Build 0)  -->
<!DOCTYPE svg PUBLIC "-//W3C//DTD SVG 1.1//EN" "http://www.w3.org/Graphics/SVG/1.1/DTD/svg11.dtd">
<svg version="1.1" id="Layer_1" xmlns="http://www.w3.org/2000/svg" xmlns:xlink="http://www.w3.org/1999/xlink" x="0px" y="0px"
	 width="85.04px" height="85.04px" viewBox="0 0 85.04 85.04" enable-background="new 0 0 85.04 85.04" xml:space="preserve">
<path fill="#050505" d="M6.132,6.133l12.817,3.938l7.368,18.349c-0.162,0.169-0.291,0.374-0.368,0.611l-3.601,11.041
	c-0.117,0.36-0.104,0.751,0.04,1.102L32.414,65.76c-0.375,1.195-0.578,2.465-0.578,3.783c0,6.978,5.677,12.654,12.655,12.654
	s12.655-5.677,12.655-12.654c0-1.116-0.146-2.198-0.419-3.229l22.859-9.752c0.813-0.347,1.191-1.287,0.844-2.101
	c-0.347-0.813-1.287-1.192-2.101-0.845l-22.81,9.73c-0.467-0.828-1.021-1.599-1.655-2.298l21.458-8.88
	c0.28-0.116,0.503-0.339,0.619-0.619s0.116-0.595,0-0.875L64.838,23.845c-0.241-0.584-0.91-0.861-1.494-0.62l-2.262,0.937
	L53.234,5.198c-0.116-0.28-0.339-0.503-0.619-0.619c-0.279-0.116-0.595-0.116-0.875-0.001l-20.403,8.445
	c-0.28,0.115-0.503,0.338-0.619,0.618s-0.116,0.595-0.001,0.876l7.849,18.963l-2.627,1.087c-0.584,0.241-0.861,0.91-0.62,1.494
	l8.625,20.84c-0.888,0.038-1.753,0.166-2.585,0.379L21.637,8.168c-0.181-0.449-0.554-0.793-1.016-0.935L7.072,3.071
	c-0.845-0.26-1.741,0.215-2.001,1.061C4.812,4.977,5.287,5.873,6.132,6.133z M33.269,14.699l5.648-2.338l2.181,5.269l6.991-2.894
	l-2.18-5.269l5.649-2.338l7.392,17.861l-18.29,7.569L33.269,14.699z M44.491,60.09c0.265,0,0.526,0.014,0.786,0.035
	c0.963,0.08,1.886,0.304,2.745,0.652c0.087,0.034,0.173,0.07,0.259,0.107c0.865,0.381,1.662,0.887,2.369,1.496
	c0.743,0.64,1.388,1.393,1.902,2.232c0.555,0.902,0.961,1.906,1.187,2.976c0.134,0.63,0.205,1.284,0.205,1.954
	c0,5.212-4.241,9.452-9.453,9.452s-9.453-4.24-9.453-9.452c0-3.418,1.824-6.418,4.55-8.079c0.904-0.551,1.908-0.954,2.979-1.177
	C43.188,60.158,43.832,60.09,44.491,60.09z M37.87,36.244l7.95-3.291l3.079,7.439l9.391-3.887l-3.079-7.439l7.951-3.29
	l10.229,24.717l-21.406,8.859c-1.593-1.175-3.47-1.985-5.507-2.308L37.87,36.244z M34.338,61.996l-3.656-8.968l4.425-2.723
	l3.276,8.158C36.796,59.342,35.416,60.55,34.338,61.996z M29.455,50.022l-3.88-9.516l2.508-7.69l5.813,14.474L29.455,50.022z"/>
<path fill="#050505" d="M44.491,74.987c3.007,0,5.444-2.438,5.444-5.444c0-0.11-0.004-0.219-0.011-0.327
	c-0.066-1.127-0.477-2.161-1.126-3.001c-0.996-1.287-2.555-2.117-4.308-2.117c-0.131,0-0.26,0.007-0.389,0.016
	c-1.124,0.079-2.153,0.5-2.986,1.158c-1.26,0.997-2.069,2.539-2.069,4.271C39.047,72.549,41.484,74.987,44.491,74.987z"/>
</svg>
