<?xml version="1.0" encoding="utf-8"?>
<!-- Generator: Adobe Illustrator 16.0.0, SVG Export Plug-In . SVG Version: 6.00 Build 0)  -->
<!DOCTYPE svg PUBLIC "-//W3C//DTD SVG 1.1//EN" "http://www.w3.org/Graphics/SVG/1.1/DTD/svg11.dtd">
<svg version="1.1" id="Layer_1" xmlns="http://www.w3.org/2000/svg" xmlns:xlink="http://www.w3.org/1999/xlink" x="0px" y="0px"
	 width="85.04px" height="85.04px" viewBox="0 0 85.04 85.04" enable-background="new 0 0 85.04 85.04" xml:space="preserve">
<g>
	<path fill="#050505" d="M-612.239-72.946h48.931l0,0l0,0c0.053,0,0.105-0.002,0.157-0.008c0.022-0.002,0.044-0.006,0.066-0.009
		c0.03-0.004,0.06-0.007,0.088-0.013c0.025-0.005,0.05-0.012,0.075-0.019c0.025-0.006,0.051-0.012,0.076-0.02
		c0.025-0.007,0.049-0.017,0.074-0.025c0.024-0.009,0.049-0.017,0.073-0.026c0.023-0.01,0.046-0.021,0.068-0.032
		c0.024-0.011,0.049-0.022,0.073-0.035c0.021-0.011,0.043-0.025,0.064-0.038c0.023-0.014,0.047-0.027,0.069-0.042
		s0.044-0.031,0.065-0.047c0.02-0.015,0.041-0.029,0.06-0.045c0.024-0.02,0.047-0.042,0.071-0.063
		c0.014-0.013,0.028-0.024,0.042-0.038l15.957-15.682c0.002-0.002,0.003-0.003,0.005-0.005c0.027-0.027,0.051-0.055,0.076-0.083
		c0.01-0.012,0.021-0.022,0.032-0.035c0.031-0.037,0.06-0.076,0.087-0.115c0.02-0.029,0.038-0.061,0.056-0.091
		c0.01-0.018,0.022-0.034,0.031-0.052c0.014-0.025,0.025-0.052,0.038-0.078c0.01-0.021,0.021-0.042,0.03-0.063
		c0.01-0.023,0.017-0.047,0.026-0.071c0.009-0.026,0.02-0.051,0.028-0.077c0.007-0.022,0.011-0.045,0.017-0.067
		c0.007-0.028,0.016-0.056,0.021-0.084c0.01-0.05,0.018-0.102,0.023-0.153c0.001-0.015,0.001-0.029,0.002-0.044
		c0.003-0.038,0.006-0.077,0.006-0.116c0-0.002,0-0.004,0-0.006v-49.1c0-0.884-0.717-1.601-1.602-1.601h-48.931
		c-0.018,0-0.035,0.002-0.052,0.002c-0.033,0.001-0.067,0.002-0.1,0.005c-0.024,0.002-0.048,0.006-0.072,0.01
		c-0.027,0.004-0.055,0.007-0.083,0.013c-0.026,0.005-0.051,0.012-0.077,0.018c-0.025,0.006-0.051,0.012-0.075,0.02
		c-0.025,0.007-0.05,0.017-0.074,0.025c-0.025,0.009-0.05,0.017-0.074,0.027c-0.023,0.01-0.046,0.021-0.068,0.031
		c-0.025,0.012-0.05,0.023-0.074,0.036c-0.022,0.011-0.043,0.024-0.064,0.037c-0.023,0.014-0.047,0.027-0.07,0.042
		s-0.044,0.031-0.065,0.047c-0.021,0.015-0.041,0.03-0.061,0.045c-0.025,0.021-0.049,0.042-0.073,0.064
		c-0.013,0.012-0.027,0.023-0.041,0.036l-15.957,15.682c-0.001,0.002-0.003,0.003-0.004,0.005c-0.027,0.027-0.052,0.055-0.076,0.083
		c-0.01,0.012-0.022,0.022-0.032,0.035c-0.031,0.037-0.06,0.076-0.087,0.116c-0.02,0.029-0.038,0.06-0.056,0.09
		c-0.01,0.018-0.021,0.034-0.031,0.052c-0.014,0.025-0.025,0.052-0.038,0.078c-0.01,0.021-0.021,0.042-0.03,0.063
		c-0.01,0.023-0.018,0.047-0.026,0.071c-0.01,0.026-0.02,0.051-0.028,0.078c-0.007,0.021-0.012,0.044-0.018,0.067
		c-0.007,0.028-0.016,0.056-0.021,0.084c-0.01,0.051-0.018,0.102-0.023,0.153c-0.001,0.015-0.001,0.029-0.002,0.044
		c-0.002,0.038-0.005,0.077-0.006,0.116c0,0.002,0,0.004,0,0.006v49.1C-613.84-73.663-613.124-72.946-612.239-72.946z
		 M-564.91-76.148h-45.728v-45.897h15.187v24.718l4.223-2.931l3.241,2.931l3.179-3.053l4.947,3.053v-24.718h14.952V-76.148z
		 M-561.707-122.989l12.754-12.914V-90.9l-12.754,12.534V-122.989z M-563.977-125.248h-13.982l12.235-12.479h14.071
		L-563.977-125.248z M-595.627-137.728h14.185l-12.669,12.479h-14.214L-595.627-137.728z"/>
	<path fill="#050505" d="M-591.855-89.078h-16.843c-0.316,0-0.572,0.256-0.572,0.572v9.662c0,0.315,0.256,0.571,0.572,0.571h16.843
		c0.316,0,0.572-0.256,0.572-0.571v-9.662C-591.283-88.822-591.539-89.078-591.855-89.078z M-592.427-79.416h-15.7v-8.519h15.7
		V-79.416z"/>
	<rect x="-607.174" y="-86.929" fill="#050505" width="0.899" height="6.591"/>
	<rect x="-594.233" y="-86.929" fill="#050505" width="0.761" height="6.591"/>
	<rect x="-605.625" y="-86.929" fill="#050505" width="0.898" height="6.591"/>
	<rect x="-602.204" y="-86.929" fill="#050505" width="0.898" height="6.591"/>
	<rect x="-599.023" y="-86.929" fill="#050505" width="0.76" height="6.591"/>
	<rect x="-597.724" y="-86.929" fill="#050505" width="0.761" height="6.591"/>
	<rect x="-600.71" y="-86.929" fill="#050505" width="1.258" height="6.591"/>
	<rect x="-604.271" y="-86.929" fill="#050505" width="1.452" height="6.591"/>
	<rect x="-596.334" y="-86.929" fill="#050505" width="1.452" height="6.591"/>
	<path fill="#050505" d="M-463.81,47.201c-5.813,0-10.543,4.729-10.543,10.542s4.73,10.542,10.543,10.542
		c5.813,0,10.543-4.729,10.543-10.542S-457.996,47.201-463.81,47.201z M-463.81,65.084c-4.047,0-7.34-3.293-7.34-7.34
		s3.292-7.34,7.34-7.34c4.048,0,7.34,3.293,7.34,7.34S-459.762,65.084-463.81,65.084z"/>
	<circle fill="#050505" cx="-463.81" cy="57.744" r="4.404"/>
	<path fill="#050505" d="M-409.911,47.201c-5.813,0-10.543,4.729-10.543,10.542s4.729,10.542,10.543,10.542
		s10.543-4.729,10.543-10.542S-404.098,47.201-409.911,47.201z M-409.911,65.084c-4.047,0-7.34-3.293-7.34-7.34
		s3.293-7.34,7.34-7.34s7.34,3.293,7.34,7.34S-405.864,65.084-409.911,65.084z"/>
	<circle fill="#050505" cx="-409.911" cy="57.744" r="4.404"/>
	<path fill="#050505" d="M-389.802,26.16l-8.84-3.705c-1.126-2.01-5.409-9.436-8.774-12.359c-0.292-0.253-0.665-0.392-1.05-0.392
		h-13.11V0.941c0-0.884-0.717-1.601-1.601-1.601h-64.488c-0.885,0-1.602,0.717-1.602,1.601v39.11c0,0.884,0.717,1.601,1.602,1.601
		h2.782v11.686c0,0.885,0.717,1.602,1.601,1.602h7.061c0.677,0,1.282-0.426,1.509-1.064c1.64-4.608,6.022-7.704,10.905-7.704
		c4.883,0,9.265,3.096,10.905,7.704c0.227,0.639,0.831,1.064,1.509,1.064h29.07c0.678,0,1.282-0.426,1.509-1.064
		c1.64-4.608,6.023-7.704,10.905-7.704s9.265,3.096,10.905,7.704c0.227,0.639,0.831,1.064,1.508,1.064h7.077
		c0.884,0,1.601-0.717,1.601-1.602V40.229V27.637C-388.82,26.992-389.207,26.41-389.802,26.16z M-421.553,12.906h12.461
		c3.361,3.273,7.866,11.492,7.913,11.579c0.174,0.319,0.452,0.569,0.787,0.709l8.37,3.508v9.926h-29.531V12.906z M-486.066,7.221
		h4.047v26.677h-4.047V7.221z M-479.96,7.221h4.305v26.677h-4.305V7.221z M-473.596,7.221h4.305v26.677h-4.305V7.221z
		 M-467.232,7.221h4.305v26.677h-4.305V7.221z M-460.869,7.221h4.305v26.677h-4.305V7.221z M-454.505,7.221h4.305v26.677h-4.305
		V7.221z M-448.141,7.221h4.305v26.677h-4.305V7.221z M-441.778,7.221h4.305v26.677h-4.305V7.221z M-435.414,7.221h4.305v26.677
		h-4.305V7.221z M-429.05,7.221h4.27v26.677h-4.27V7.221z M-486.066,2.542h61.286v2.392h-61.286V2.542z M-486.066,38.449v-2.264
		h61.286v2.264H-486.066z M-392.022,51.737h-4.393c-2.359-5.289-7.646-8.769-13.496-8.769s-11.137,3.479-13.497,8.769h-26.905
		c-2.359-5.289-7.646-8.769-13.497-8.769s-11.137,3.479-13.496,8.769h-4.377v-9.906h58.528h31.132V51.737z"/>
	<path fill="#050505" d="M-411.168,15.667h-8.435v10.001h15.571l-0.084-0.142C-405.861,22.6-408.901,18.117-411.168,15.667z"/>
	<rect x="-417.337" y="29.472" fill="#050505" width="5.071" height="1.844"/>
	<path fill="#050505" d="M-598.303,39.15c-0.632,0-1.144,0.512-1.144,1.144v24.918h-10.233c-0.885,0-1.602,0.717-1.602,1.602v8.155
		v0.026v3.787c0,0.884,0.717,1.601,1.602,1.601h7.995c0.884,0,1.601-0.717,1.601-1.601v-2.186h40.58v2.186
		c0,0.884,0.717,1.601,1.601,1.601h7.995c0.884,0,1.602-0.717,1.602-1.601v-3.787v-0.026v-8.155c0-0.885-0.717-1.602-1.602-1.602
		h-10.844V40.294c0-0.632-0.512-1.144-1.144-1.144h-11.714V25.348c7.754-2.599,13.359-9.928,13.359-18.545
		c0-10.785-8.774-19.558-19.558-19.558c-10.785,0-19.558,8.773-19.558,19.558c0,8.561,5.532,15.85,13.207,18.494V39.15H-598.303z
		 M-563.042,65.212v0.447h-34.118v-0.447V41.438h10.997h1.273v13.672l1.929-1.253l0.475-0.308l2.622,1.561l2.694-1.561l0.354,0.234
		l2.002,1.326V41.438h1.201h10.571V65.212z M-551.511,68.415v4.953h-6.394c-0.096,0-0.189,0.01-0.281,0.026h-43.22
		c-0.091-0.016-0.185-0.026-0.281-0.026h-6.394v-4.953H-551.511z M-579.811-9.554c9.018,0,16.355,7.337,16.355,16.356
		c0,6.825-4.204,12.684-10.157,15.132c-1.021,0.419-2.092,0.737-3.203,0.944c-0.972,0.181-1.973,0.28-2.996,0.28
		c-1.077,0-2.129-0.108-3.149-0.307c-1.111-0.218-2.184-0.546-3.203-0.977c-5.873-2.484-10.004-8.305-10.004-15.072
		C-596.167-2.217-588.83-9.554-579.811-9.554z M-582.96,26.104c1.026,0.167,2.077,0.257,3.149,0.257
		c1.019,0,2.019-0.079,2.996-0.229v13.02h-6.145V26.104z"/>
	<path fill="#050505" d="M-586.117,19.345c1.897,0.958,4.039,1.501,6.306,1.501c2.212,0,4.306-0.516,6.169-1.431
		c4.659-2.289,7.875-7.081,7.875-12.612c0-7.744-6.3-14.043-14.043-14.043s-14.043,6.3-14.043,14.043
		C-593.854,12.279-590.702,17.03-586.117,19.345z M-579.811-4.954c6.482,0,11.756,5.274,11.756,11.756
		c0,5.379-3.633,9.922-8.573,11.314c-1.013,0.286-2.08,0.441-3.183,0.441s-2.17-0.156-3.183-0.441
		c-4.94-1.392-8.573-5.935-8.573-11.314C-591.567,0.32-586.293-4.954-579.811-4.954z"/>
	<path fill="#050505" d="M-579.811,9.105c1.272,0,2.303-1.031,2.303-2.304c0-0.798-0.406-1.501-1.023-1.914l-1.205-6.708
		l-1.186,6.605c-0.711,0.392-1.193,1.148-1.193,2.018C-582.114,8.074-581.083,9.105-579.811,9.105z"/>
	<path fill="#050505" d="M-583.366,56.751h-2.796h-8.604c-0.19,0-0.343,0.154-0.343,0.343v6.54c0,0.189,0.153,0.343,0.343,0.343
		h11.4c0.148,0,0.272-0.094,0.321-0.225c0.014-0.037,0.022-0.077,0.022-0.118v-6.54C-583.023,56.905-583.177,56.751-583.366,56.751z
		 M-594.424,63.291v-5.854h8.261h2.453v5.854h-1.975H-594.424z"/>
	<rect x="-593.735" y="58.162" fill="#050505" width="0.608" height="4.461"/>
	<rect x="-584.976" y="58.162" fill="#050505" width="0.515" height="4.461"/>
	<rect x="-592.687" y="58.162" fill="#050505" width="0.608" height="4.461"/>
	<rect x="-590.371" y="58.162" fill="#050505" width="0.608" height="4.461"/>
	<rect x="-588.219" y="58.162" fill="#050505" width="0.515" height="4.461"/>
	<rect x="-587.339" y="58.162" fill="#050505" width="0.515" height="4.461"/>
	<rect x="-589.36" y="58.162" fill="#050505" width="0.852" height="4.461"/>
	<rect x="-591.77" y="58.162" fill="#050505" width="0.982" height="4.461"/>
	<polygon fill="#050505" points="-586.398,58.162 -586.398,62.624 -586.091,62.624 -585.416,62.624 -585.416,58.162 
		-586.163,58.162 	"/>
	<path fill="#050505" d="M-475.923-75.515h44.637c3.264,3.176,7.715,5.139,12.618,5.139c9.983,0,18.105-8.122,18.105-18.105
		c0-6.612-3.564-12.404-8.871-15.564v-37.852c0-0.884-0.717-1.601-1.601-1.601h-48.931c-0.018,0-0.034,0.002-0.052,0.002
		c-0.033,0.001-0.067,0.002-0.1,0.005c-0.024,0.002-0.048,0.006-0.072,0.009c-0.028,0.004-0.056,0.007-0.083,0.013
		c-0.026,0.005-0.051,0.012-0.077,0.018c-0.025,0.006-0.051,0.012-0.076,0.02c-0.025,0.007-0.049,0.017-0.074,0.025
		c-0.025,0.008-0.05,0.017-0.074,0.026c-0.023,0.01-0.046,0.021-0.069,0.031c-0.024,0.012-0.049,0.023-0.073,0.036
		c-0.022,0.012-0.043,0.025-0.064,0.038c-0.023,0.014-0.047,0.027-0.07,0.042c-0.022,0.015-0.043,0.031-0.065,0.047
		c-0.021,0.015-0.042,0.03-0.061,0.045c-0.025,0.021-0.048,0.042-0.072,0.064c-0.013,0.012-0.028,0.023-0.041,0.036l-15.957,15.682
		c-0.002,0.002-0.003,0.003-0.005,0.005c-0.027,0.027-0.051,0.055-0.076,0.083c-0.01,0.012-0.021,0.022-0.032,0.035
		c-0.031,0.037-0.06,0.076-0.086,0.116c-0.021,0.03-0.039,0.06-0.057,0.091c-0.01,0.017-0.021,0.033-0.031,0.051
		c-0.014,0.026-0.026,0.053-0.039,0.08c-0.01,0.021-0.021,0.041-0.029,0.062c-0.01,0.024-0.019,0.05-0.027,0.075
		c-0.009,0.024-0.019,0.048-0.026,0.072c-0.008,0.025-0.014,0.051-0.02,0.077c-0.006,0.025-0.014,0.05-0.019,0.075
		c-0.01,0.05-0.018,0.102-0.023,0.154c-0.001,0.012-0.001,0.023-0.002,0.036c-0.003,0.041-0.006,0.082-0.006,0.124
		c0,0.002,0,0.004,0,0.006v49.1C-477.525-76.232-476.808-75.515-475.923-75.515z M-474.322-78.718v-45.897h15.187v24.719
		l4.223-2.932l3.24,2.932l3.179-3.054l4.947,3.054v-24.719h14.952v21.003c-4.922,3.24-8.18,8.811-8.18,15.131
		c0,3.594,1.057,6.944,2.871,9.764H-474.322z M-426.287-75.68L-426.287-75.68c-0.816-0.488-1.581-1.051-2.287-1.68
		c-0.475-0.423-0.921-0.877-1.339-1.357c-2.276-2.617-3.658-6.031-3.658-9.764c0-4.408,1.925-8.373,4.977-11.104
		c0.963-0.862,2.04-1.599,3.203-2.189c2.021-1.027,4.305-1.609,6.723-1.609c2.146,0,4.186,0.46,6.032,1.28
		c1.151,0.512,2.226,1.165,3.202,1.938c3.449,2.732,5.668,6.952,5.668,11.684c0,8.217-6.685,14.902-14.902,14.902
		C-421.45-73.579-424.056-74.348-426.287-75.68z M-418.668-106.586c-2.375,0-4.643,0.464-6.723,1.299v-20.271l12.754-12.914v32.923
		C-414.525-106.219-416.554-106.586-418.668-106.586z M-427.662-127.817h-13.982l12.236-12.479h14.071L-427.662-127.817z
		 M-459.312-140.297h14.186l-12.669,12.479h-14.214L-459.312-140.297z"/>
	<path fill="#050505" d="M-455.539-91.647h-16.843c-0.316,0-0.572,0.256-0.572,0.572v9.662c0,0.315,0.256,0.571,0.572,0.571h16.843
		c0.316,0,0.572-0.256,0.572-0.571v-9.662C-454.967-91.392-455.223-91.647-455.539-91.647z M-456.111-81.985h-15.7v-8.519h15.7
		V-81.985z"/>
	<rect x="-470.858" y="-89.499" fill="#050505" width="0.898" height="6.591"/>
	<rect x="-457.917" y="-89.499" fill="#050505" width="0.76" height="6.591"/>
	<rect x="-469.31" y="-89.499" fill="#050505" width="0.899" height="6.591"/>
	<rect x="-465.888" y="-89.499" fill="#050505" width="0.898" height="6.591"/>
	<rect x="-462.708" y="-89.499" fill="#050505" width="0.761" height="6.591"/>
	<rect x="-461.408" y="-89.499" fill="#050505" width="0.76" height="6.591"/>
	<rect x="-464.395" y="-89.499" fill="#050505" width="1.258" height="6.591"/>
	<rect x="-467.955" y="-89.499" fill="#050505" width="1.452" height="6.591"/>
	<rect x="-460.019" y="-89.499" fill="#050505" width="1.452" height="6.591"/>
	<path fill="#050505" d="M-411.773-89.829c-0.118-0.028-0.24-0.043-0.366-0.043h-2.604h-1.555h-1.629l-3.452-4.081l-3.148-3.722
		c-0.232-0.274-0.538-0.449-0.864-0.524c-0.475-0.108-0.993-0.002-1.393,0.336c-0.675,0.571-0.759,1.582-0.188,2.257l1.582,1.87
		l5.499,6.5c0.142,0.168,0.316,0.301,0.509,0.397c0.219,0.109,0.463,0.17,0.714,0.17h3.683h2.849c0.884,0,1.602-0.717,1.602-1.602
		C-410.537-89.029-411.065-89.663-411.773-89.829z"/>
	<path fill="#050505" d="M-335.857-80.323h48.932c0.053,0,0.105-0.003,0.157-0.008c0.022-0.002,0.044-0.006,0.066-0.009
		c0.029-0.004,0.059-0.008,0.087-0.014c0.025-0.005,0.051-0.012,0.076-0.018s0.051-0.012,0.075-0.02s0.049-0.017,0.073-0.025
		c0.025-0.009,0.05-0.018,0.074-0.027c0.022-0.01,0.045-0.021,0.068-0.031c0.024-0.012,0.049-0.022,0.073-0.035
		c0.021-0.012,0.042-0.025,0.063-0.038c0.023-0.014,0.047-0.027,0.069-0.042s0.044-0.032,0.066-0.048
		c0.02-0.015,0.04-0.029,0.059-0.044c0.026-0.021,0.051-0.044,0.075-0.066c0.013-0.012,0.025-0.021,0.038-0.034l9.127-8.97
		l1.806,4.612l-0.149,0.059c-0.544,0.213-0.84,0.801-0.687,1.365c0.039,0.146,0.089,0.293,0.145,0.438l5.661,14.456
		c0.665,1.699,2.317,2.796,4.21,2.797h0.001c0.602,0,1.195-0.113,1.764-0.335l1.33-0.521c2.396-0.938,3.613-3.569,2.715-5.864
		l-5.661-14.456c-0.057-0.144-0.12-0.284-0.19-0.419c-0.271-0.518-0.887-0.75-1.432-0.536l-0.149,0.058l-2.009-5.129
		c5.588-4.114,7.966-11.622,5.318-18.384c-1.125-2.871-3.005-5.261-5.363-6.982v-28.111c0-0.885-0.717-1.602-1.601-1.602H-319.9
		c-0.021,0-0.04,0.002-0.06,0.003c-0.03,0.001-0.061,0.002-0.091,0.005c-0.026,0.002-0.053,0.007-0.079,0.011
		c-0.025,0.003-0.051,0.007-0.076,0.012c-0.027,0.005-0.055,0.012-0.081,0.019c-0.023,0.006-0.048,0.012-0.07,0.019
		c-0.026,0.008-0.053,0.018-0.079,0.026c-0.023,0.009-0.047,0.017-0.069,0.025c-0.024,0.01-0.049,0.022-0.073,0.033
		c-0.022,0.011-0.047,0.021-0.069,0.034c-0.023,0.012-0.046,0.026-0.068,0.04c-0.022,0.013-0.045,0.026-0.066,0.04
		c-0.023,0.016-0.046,0.033-0.068,0.05c-0.02,0.015-0.039,0.028-0.058,0.043c-0.026,0.021-0.052,0.045-0.077,0.069
		c-0.012,0.011-0.024,0.021-0.036,0.032l-15.957,15.682c-0.001,0.002-0.003,0.003-0.004,0.005c-0.03,0.029-0.058,0.061-0.085,0.092
		c-0.007,0.009-0.016,0.017-0.023,0.026c-0.033,0.041-0.064,0.083-0.094,0.125c-0.015,0.021-0.026,0.044-0.04,0.066
		c-0.014,0.022-0.028,0.044-0.041,0.068c-0.013,0.022-0.022,0.047-0.034,0.07c-0.011,0.023-0.023,0.047-0.033,0.071
		c-0.009,0.021-0.016,0.043-0.023,0.064c-0.011,0.028-0.021,0.055-0.03,0.083c-0.006,0.02-0.01,0.04-0.016,0.06
		c-0.009,0.034-0.018,0.068-0.024,0.103c-0.01,0.046-0.017,0.094-0.022,0.142c-0.001,0.017-0.001,0.032-0.002,0.049
		c-0.003,0.037-0.006,0.073-0.006,0.111c0,0.002,0,0.004,0,0.007v49.1C-337.458-81.041-336.741-80.323-335.857-80.323z
		 M-288.527-83.526h-45.729v-45.897h15.187v24.718l4.224-2.932l3.24,2.932l3.18-3.054l4.946,3.054v-24.718h14.952v11.333
		c-5.171,4.195-7.295,11.414-4.74,17.938c1.023,2.614,2.674,4.828,4.74,6.503V-83.526z M-270.191-95.446
		c-0.306,0.248-0.624,0.48-0.954,0.702c-0.319,0.215-0.65,0.417-0.991,0.605c-0.058,0.031-0.114,0.063-0.172,0.094
		c-0.459,0.245-0.936,0.469-1.433,0.663c-0.555,0.218-1.119,0.395-1.69,0.536c-0.377,0.094-0.756,0.169-1.139,0.229
		c-0.39,0.061-0.782,0.104-1.177,0.13c-0.248,0.017-0.497,0.027-0.747,0.03c-0.046,0-0.092,0.003-0.138,0.003h-0.001
		c-2.415,0-4.706-0.632-6.692-1.77c-1.19-0.682-2.271-1.546-3.202-2.565c-1.097-1.199-1.988-2.613-2.609-4.199
		c-1.928-4.922-0.737-10.308,2.609-13.968c0.913-0.999,1.987-1.87,3.202-2.567c0.568-0.326,1.166-0.615,1.794-0.861
		c1.572-0.616,3.219-0.928,4.892-0.928c2.167,0,4.232,0.509,6.069,1.436c1.173,0.591,2.252,1.353,3.202,2.263
		c1.384,1.324,2.498,2.958,3.232,4.835C-263.951-105.201-265.769-99.03-270.191-95.446z M-269.433-87.233l-3.296,1.29l-0.012-0.031
		l-1.852-4.727c0.568-0.152,1.131-0.333,1.686-0.55c0.557-0.218,1.093-0.468,1.61-0.741l1.851,4.728L-269.433-87.233z
		 M-263.431-69.013l-1.331,0.521c-0.301,0.118-0.613,0.178-0.929,0.178h-0.001c-0.944,0-1.761-0.527-2.08-1.343l-5.36-13.69
		c0.059-0.013,0.116-0.027,0.173-0.049l5.426-2.125c0.057-0.022,0.108-0.052,0.16-0.082l5.361,13.69
		C-261.573-70.791-262.21-69.49-263.431-69.013z M-285.325-85.743v-5.903c1.446,0.677,3.007,1.135,4.637,1.346L-285.325-85.743z
		 M-278.64-121.6c-1.96,0-3.887,0.365-5.727,1.086c-0.327,0.128-0.645,0.27-0.959,0.417v-10.271l12.755-12.914v22.887
		C-274.45-121.175-276.503-121.6-278.64-121.6z M-287.596-132.626h-13.981l12.235-12.479h14.071L-287.596-132.626z
		 M-319.245-145.105h14.186l-12.669,12.479h-14.215L-319.245-145.105z"/>
	<path fill="#050505" d="M-315.473-96.456h-16.844c-0.315,0-0.571,0.256-0.571,0.572v9.662c0,0.316,0.256,0.572,0.571,0.572h16.844
		c0.315,0,0.572-0.256,0.572-0.572v-9.662C-314.9-96.199-315.157-96.456-315.473-96.456z M-316.045-86.793h-15.699v-8.518h15.699
		V-86.793z"/>
	<rect x="-330.792" y="-94.307" fill="#050505" width="0.898" height="6.591"/>
	<rect x="-317.851" y="-94.307" fill="#050505" width="0.76" height="6.591"/>
	<rect x="-329.243" y="-94.307" fill="#050505" width="0.898" height="6.591"/>
	<rect x="-325.821" y="-94.307" fill="#050505" width="0.898" height="6.591"/>
	<rect x="-322.642" y="-94.307" fill="#050505" width="0.761" height="6.591"/>
	<rect x="-321.342" y="-94.307" fill="#050505" width="0.761" height="6.591"/>
	<rect x="-324.328" y="-94.307" fill="#050505" width="1.258" height="6.591"/>
	<rect x="-327.889" y="-94.307" fill="#050505" width="1.452" height="6.591"/>
	<rect x="-319.952" y="-94.307" fill="#050505" width="1.451" height="6.591"/>
	<path fill="#050505" d="M-272.57-114.709c-1.74-1.197-3.838-1.873-6.068-1.873c-1.334,0-2.646,0.249-3.897,0.739
		c-1.032,0.404-1.967,0.952-2.789,1.612c-0.271,0.218-0.53,0.448-0.777,0.689c-0.248,0.243-0.484,0.497-0.706,0.761
		c-0.721,0.857-1.298,1.82-1.719,2.849c-1.007,2.457-1.111,5.288-0.069,7.95c0.022,0.056,0.047,0.111,0.069,0.167
		c0.708,1.725,1.819,3.188,3.202,4.297c1.81,1.45,4.082,2.294,6.521,2.332c0.036,0,0.073,0.001,0.109,0.002
		c0.021,0,0.041,0.001,0.062,0.001l0,0l0,0c0.349,0,0.694-0.018,1.038-0.052c0.39-0.038,0.775-0.1,1.158-0.18
		c0.45-0.095,0.896-0.219,1.333-0.373c0.124-0.043,0.246-0.087,0.368-0.135c0.559-0.218,1.09-0.482,1.595-0.783
		c0.221-0.131,0.437-0.27,0.646-0.417c0.11-0.077,0.218-0.157,0.325-0.238c0.322-0.244,0.631-0.503,0.923-0.782
		c0.312-0.297,0.604-0.615,0.877-0.949c0.371-0.454,0.707-0.939,1.002-1.454c0.194-0.339,0.374-0.689,0.532-1.053
		c1.145-2.618,1.201-5.525,0.159-8.186c-0.197-0.504-0.429-0.985-0.691-1.443C-270.175-112.635-271.273-113.817-272.57-114.709z
		 M-272.57-111.714c0.745,0.78,1.351,1.71,1.764,2.765c0.819,2.091,0.774,4.376-0.125,6.435c-0.404,0.924-0.96,1.752-1.639,2.459
		c-0.09,0.093-0.181,0.184-0.273,0.272c-0.778,0.738-1.698,1.327-2.727,1.729c-0.123,0.048-0.247,0.094-0.371,0.136
		c-0.872,0.296-1.775,0.446-2.692,0.446l0,0c-0.036,0-0.07-0.003-0.106-0.004c-2.647-0.032-5.045-1.275-6.585-3.31
		c-0.462-0.611-0.851-1.289-1.141-2.031c-1.107-2.828-0.572-5.899,1.141-8.158c0.903-1.19,2.133-2.154,3.623-2.738
		c0.985-0.386,2.016-0.582,3.063-0.582C-276.284-114.294-274.121-113.335-272.57-111.714z"/>
	<path fill="#050505" d="M-194.19-143.405l12.817,3.938l7.368,18.349c-0.162,0.169-0.291,0.374-0.368,0.611l-3.601,11.041
		c-0.117,0.36-0.104,0.75,0.04,1.102l10.025,24.586c-0.375,1.195-0.578,2.466-0.578,3.783c0,6.978,5.677,12.655,12.655,12.655
		s12.655-5.677,12.655-12.655c0-1.116-0.146-2.198-0.419-3.229l22.859-9.751c0.813-0.347,1.191-1.287,0.844-2.101
		c-0.347-0.814-1.287-1.192-2.101-0.845l-22.81,9.73c-0.467-0.827-1.021-1.598-1.655-2.297l21.458-8.88
		c0.28-0.116,0.503-0.339,0.619-0.619s0.116-0.595,0-0.875l-11.104-26.831c-0.241-0.584-0.91-0.861-1.494-0.62l-2.262,0.936
		l-7.848-18.963c-0.116-0.28-0.339-0.503-0.619-0.619c-0.279-0.116-0.595-0.116-0.875,0l-20.403,8.444
		c-0.28,0.116-0.503,0.338-0.619,0.619s-0.116,0.595-0.001,0.875l7.849,18.963l-2.627,1.087c-0.584,0.241-0.861,0.91-0.62,1.494
		l8.625,20.84c-0.888,0.038-1.753,0.166-2.585,0.379l-19.722-49.113c-0.181-0.449-0.554-0.792-1.016-0.934l-13.549-4.162
		c-0.845-0.26-1.741,0.215-2.001,1.061C-195.511-144.561-195.035-143.664-194.19-143.405z M-167.054-134.838l5.648-2.338
		l2.181,5.269l6.991-2.894l-2.18-5.269l5.649-2.338l7.392,17.861l-18.29,7.569L-167.054-134.838z M-155.831-89.447
		c0.265,0,0.526,0.014,0.786,0.035c0.963,0.08,1.886,0.304,2.745,0.652c0.087,0.035,0.173,0.071,0.259,0.108
		c0.865,0.38,1.662,0.887,2.369,1.496c0.743,0.64,1.388,1.392,1.902,2.232c0.555,0.903,0.961,1.907,1.187,2.976
		c0.134,0.63,0.205,1.284,0.205,1.954c0,5.212-4.241,9.453-9.453,9.453s-9.453-4.24-9.453-9.453c0-3.418,1.824-6.418,4.55-8.079
		c0.904-0.551,1.908-0.954,2.979-1.177C-157.134-89.379-156.49-89.447-155.831-89.447z M-162.452-113.293l7.95-3.291l3.079,7.439
		l9.391-3.887l-3.079-7.439l7.951-3.29l10.229,24.717l-21.406,8.859c-1.593-1.175-3.47-1.985-5.507-2.308L-162.452-113.293z
		 M-165.984-87.541l-3.656-8.968l4.425-2.723l3.276,8.158C-163.526-90.195-164.906-88.987-165.984-87.541z M-170.867-99.515
		l-3.88-9.516l2.508-7.691l5.813,14.474L-170.867-99.515z"/>
	<path fill="#050505" d="M-155.831-74.55c3.007,0,5.444-2.438,5.444-5.445c0-0.11-0.004-0.218-0.011-0.327
		c-0.066-1.127-0.477-2.162-1.126-3.001c-0.996-1.287-2.555-2.117-4.308-2.117c-0.131,0-0.26,0.007-0.389,0.016
		c-1.124,0.079-2.153,0.5-2.986,1.158c-1.26,0.997-2.069,2.539-2.069,4.271C-161.275-76.988-158.838-74.55-155.831-74.55z"/>
	<path fill="#050505" d="M-410.426,298.393c0.502,0.197,1.04,0.305,1.586,0.305c1.283,0,2.494-0.563,3.32-1.543
		c1.543-1.83,1.311-4.574-0.52-6.118l-3.361-2.835c-0.782-0.659-1.775-1.022-2.797-1.022c-1.283,0-2.494,0.563-3.321,1.542
		c-0.748,0.887-1.105,2.012-1.007,3.167c0.058,0.677,0.272,1.315,0.614,1.88l-0.905,1.072c-4.774-3.771-10.552-6.323-16.86-7.19
		v-2.477c1.83-0.845,3.103-2.696,3.103-4.841v-1.213c0-2.938-2.391-5.33-5.33-5.33h-5.035c-2.938,0-5.33,2.392-5.33,5.33v1.213
		c0,2.111,1.233,3.939,3.017,4.802v2.516c-6.764,0.93-12.917,3.799-17.878,8.028l-1.611-1.91c0.343-0.564,0.557-1.203,0.614-1.88
		c0.098-1.155-0.26-2.28-1.007-3.167c-0.827-0.979-2.037-1.542-3.321-1.542c-1.022,0-2.015,0.363-2.797,1.022l-3.361,2.835
		c-1.83,1.544-2.063,4.288-0.52,6.118c0.827,0.98,2.037,1.543,3.32,1.543c0.547,0,1.084-0.107,1.586-0.305l2.111,2.503
		c-4.597,5.923-7.338,13.354-7.338,21.414c0,19.293,15.696,34.989,34.989,34.989s34.989-15.696,34.989-34.989
		c0-8.542-3.078-16.377-8.181-22.458L-410.426,298.393z M-438.464,354.096c-17.527,0-31.786-14.26-31.786-31.786
		c0-7.087,2.333-13.64,6.269-18.932c0.24-0.322,0.486-0.639,0.737-0.951c1.017-1.264,2.126-2.449,3.321-3.545
		c0.281-0.257,0.567-0.51,0.858-0.757c4.402-3.756,9.837-6.334,15.814-7.241c0.379-0.058,0.761-0.106,1.144-0.15
		c0.379-0.044,0.761-0.082,1.144-0.112c0.825-0.064,1.658-0.098,2.5-0.098s1.675,0.033,2.5,0.098
		c0.384,0.03,0.765,0.068,1.144,0.112c0.383,0.044,0.765,0.093,1.144,0.15c5.524,0.838,10.585,3.103,14.795,6.405
		c0.3,0.235,0.595,0.477,0.887,0.723s0.58,0.496,0.862,0.752c0.644,0.584,1.263,1.195,1.857,1.83
		c0.263,0.281,0.522,0.565,0.775,0.855c0.254,0.292,0.502,0.589,0.746,0.89c4.423,5.462,7.077,12.411,7.077,19.971
		C-406.678,339.836-420.937,354.096-438.464,354.096z M-469.813,296.409c-0.607,0-1.181-0.266-1.572-0.729
		c-0.73-0.866-0.62-2.164,0.246-2.895l3.361-2.835c0.37-0.313,0.839-0.484,1.322-0.484c0.608,0,1.181,0.267,1.572,0.73
		c0.354,0.419,0.522,0.951,0.476,1.498c-0.026,0.312-0.123,0.605-0.278,0.868c-0.116,0.196-0.264,0.376-0.444,0.528l-3.361,2.835
		c-0.179,0.15-0.381,0.268-0.597,0.35C-469.317,296.362-469.563,296.409-469.813,296.409z M-464.341,295.419l1.518,1.8
		c-0.625,0.607-1.228,1.237-1.807,1.89l-1.698-2.014L-464.341,295.419z M-443.98,279.119c0-1.677,1.365-3.042,3.042-3.042h5.035
		c1.677,0,3.042,1.365,3.042,3.042v1.213c0,0.949-0.437,1.798-1.121,2.356c-0.524,0.429-1.193,0.687-1.921,0.687h-5.035
		c-0.751,0-1.438-0.275-1.97-0.729c-0.655-0.559-1.072-1.388-1.072-2.314V279.119z M-440.963,285.662c0.008,0,0.017,0,0.025,0h4.974
		v1.749c-0.826-0.059-1.659-0.091-2.5-0.091c-0.84,0-1.674,0.032-2.5,0.091V285.662z M-415.068,296.316l0.757-0.897l1.987,1.676
		l-0.874,1.036C-413.798,297.503-414.423,296.898-415.068,296.316z M-407.268,295.68c-0.391,0.464-0.964,0.729-1.572,0.729
		c-0.25,0-0.495-0.047-0.726-0.134c-0.216-0.082-0.418-0.199-0.597-0.35l-3.361-2.835c-0.18-0.152-0.328-0.332-0.444-0.528
		c-0.154-0.262-0.251-0.557-0.278-0.868c-0.046-0.547,0.123-1.079,0.477-1.498c0.391-0.464,0.964-0.73,1.572-0.73
		c0.483,0,0.953,0.172,1.323,0.484l3.361,2.835C-406.647,293.516-406.538,294.813-407.268,295.68z"/>
	<path fill="#050505" d="M-435.164,295.071c-1.083-0.13-2.183-0.198-3.3-0.198s-2.217,0.068-3.299,0.198
		c-13.579,1.636-24.138,13.227-24.138,27.238c0,15.129,12.308,27.437,27.437,27.437s27.437-12.308,27.437-27.437
		C-411.027,308.298-421.586,296.707-435.164,295.071z M-438.464,346.544c-13.363,0-24.234-10.872-24.234-24.234
		c0-13.363,10.872-24.234,24.234-24.234s24.234,10.871,24.234,24.234C-414.229,335.672-425.101,346.544-438.464,346.544z"/>
	<path fill="#050505" d="M-438.464,306.919c0.885,0,1.602-0.717,1.602-1.602v-5.101c0-0.885-0.717-1.602-1.602-1.602
		c-0.884,0-1.601,0.717-1.601,1.602v5.101C-440.065,306.202-439.348,306.919-438.464,306.919z"/>
	<path fill="#050505" d="M-438.464,337.7c-0.884,0-1.601,0.717-1.601,1.602v5.101c0,0.885,0.717,1.602,1.601,1.602
		c0.885,0,1.602-0.717,1.602-1.602v-5.101C-436.862,338.417-437.579,337.7-438.464,337.7z"/>
	<path fill="#050505" d="M-448.124,302.376c-0.442-0.767-1.421-1.028-2.187-0.587c-0.766,0.443-1.028,1.422-0.586,2.188l2.55,4.417
		c0.297,0.514,0.835,0.801,1.389,0.801c0.271,0,0.547-0.068,0.799-0.215c0.766-0.441,1.028-1.422,0.586-2.188L-448.124,302.376z"/>
	<path fill="#050505" d="M-428.581,336.225c-0.442-0.766-1.421-1.028-2.188-0.587c-0.766,0.442-1.028,1.422-0.586,2.188l2.55,4.418
		c0.296,0.514,0.835,0.801,1.388,0.801c0.271,0,0.547-0.069,0.799-0.215c0.766-0.442,1.028-1.422,0.586-2.188L-428.581,336.225z"/>
	<path fill="#050505" d="M-452.378,312.427l-4.417-2.551c-0.766-0.441-1.745-0.18-2.188,0.587c-0.442,0.766-0.18,1.745,0.586,2.188
		l4.417,2.55c0.252,0.146,0.527,0.215,0.799,0.215c0.553,0,1.092-0.287,1.388-0.801
		C-451.35,313.849-451.613,312.869-452.378,312.427z"/>
	<path fill="#050505" d="M-418.53,331.969l-4.417-2.551c-0.766-0.441-1.745-0.18-2.188,0.587c-0.442,0.766-0.18,1.745,0.586,2.188
		l4.417,2.55c0.252,0.146,0.527,0.215,0.799,0.215c0.553,0,1.092-0.287,1.388-0.801
		C-417.502,333.391-417.765,332.411-418.53,331.969z"/>
	<path fill="#050505" d="M-453.854,322.31c0-0.885-0.717-1.602-1.601-1.602h-5.101c-0.884,0-1.601,0.717-1.601,1.602
		c0,0.884,0.717,1.601,1.601,1.601h5.101C-454.571,323.91-453.854,323.193-453.854,322.31z"/>
	<path fill="#050505" d="M-416.371,320.708h-5.101c-0.884,0-1.601,0.717-1.601,1.602c0,0.884,0.717,1.601,1.601,1.601h5.101
		c0.884,0,1.602-0.717,1.602-1.601C-414.77,321.425-415.487,320.708-416.371,320.708z"/>
	<path fill="#050505" d="M-453.98,329.418l-4.417,2.551c-0.766,0.442-1.028,1.422-0.586,2.188c0.296,0.514,0.835,0.801,1.388,0.801
		c0.271,0,0.547-0.069,0.799-0.215l4.417-2.55c0.766-0.442,1.028-1.422,0.586-2.188
		C-452.234,329.238-453.214,328.977-453.98,329.418z"/>
	<path fill="#050505" d="M-425.135,314.614c0.296,0.514,0.835,0.801,1.388,0.801c0.271,0,0.547-0.069,0.799-0.215l4.417-2.55
		c0.766-0.442,1.028-1.422,0.586-2.188c-0.442-0.767-1.421-1.028-2.188-0.587l-4.417,2.551
		C-425.315,312.869-425.578,313.849-425.135,314.614z"/>
	<path fill="#050505" d="M-446.159,335.638c-0.766-0.441-1.745-0.18-2.188,0.587l-2.55,4.417c-0.442,0.766-0.18,1.745,0.586,2.188
		c0.252,0.146,0.527,0.215,0.799,0.215c0.554,0,1.092-0.287,1.388-0.801l2.551-4.418
		C-445.131,337.06-445.393,336.08-446.159,335.638z"/>
	<path fill="#050505" d="M-430.769,308.98c0.252,0.146,0.527,0.215,0.799,0.215c0.553,0,1.092-0.287,1.388-0.801l2.55-4.417
		c0.442-0.767,0.18-1.745-0.586-2.188c-0.766-0.441-1.745-0.179-2.188,0.587l-2.55,4.417
		C-431.797,307.559-431.535,308.539-430.769,308.98z"/>
	<path fill="#050505" d="M-423.312,308.257c-0.379-0.411-1-0.488-1.468-0.183l-13.934,9.129c-2.703,0.131-4.862,2.371-4.862,5.106
		c0,2.818,2.293,5.112,5.112,5.112c2.675,0,4.875-2.066,5.093-4.686l10.12-13.002C-422.907,309.293-422.933,308.668-423.312,308.257
		z M-438.464,324.219c-1.053,0-1.91-0.856-1.91-1.909s0.857-1.909,1.91-1.909c1.053,0,1.91,0.856,1.91,1.909
		S-437.411,324.219-438.464,324.219z M-434,319.82c-0.417-0.745-1.016-1.376-1.736-1.832l6.454-4.229L-434,319.82z"/>
	<ellipse fill="#050505" cx="-310.643" cy="313.101" rx="2.411" ry="2.441"/>
	<path fill="#050505" d="M-264.361,348.132h-3.207v-4.059c0-0.884-0.717-1.601-1.602-1.601h-3.813v-67.235
		c0-0.885-0.718-1.602-1.602-1.602h-47.416c-0.885,0-1.602,0.717-1.602,1.602v67.235h-3.814c-0.884,0-1.601,0.717-1.601,1.601v4.059
		h-3.208c-0.884,0-1.601,0.717-1.601,1.602v5.659c0,0.885,0.717,1.602,1.601,1.602h67.864c0.885,0,1.602-0.717,1.602-1.602v-5.659
		C-262.76,348.849-263.477,348.132-264.361,348.132z M-265.962,353.792h-64.662v-2.457h2.5h59.662h2.5V353.792z M-325.815,345.675
		h2.213h1.602h47.416h1.602h2.213v2.457h-55.045V345.675z M-320.399,276.839h44.213v65.634h-2.486v-60.514
		c0-0.885-0.717-1.602-1.602-1.602h-36.038c-0.884,0-1.602,0.717-1.602,1.602v60.514h-2.485V276.839z M-290.424,342.864h-15.025
		v-0.392v-9.927h5.235v5.901l1.144-0.742l1.247,0.742l1.281-0.742l1.12,0.742v-5.901h4.998v9.927V342.864z M-298.583,326.339
		l0.957,0.569l0.982-0.569l0.859,0.569v-4.261h3.567v7.383h-10.992v-7.383h3.75v4.261L-298.583,326.339z M-281.875,342.473h-6.262
		v-11.07c0-0.632-0.512-1.145-1.144-1.145h-0.648v-8.754c0-0.632-0.513-1.144-1.145-1.144h-13.279c-0.632,0-1.144,0.512-1.144,1.144
		v8.754h-1.097c-0.632,0-1.144,0.513-1.144,1.145v11.07h-6.975v-58.912h32.836V342.473z"/>
	<path fill="#050505" d="M-258.305,28.198c-3.224-0.925-6.392-1.365-6.525-1.384c-0.072-0.01-0.145-0.015-0.218-0.015h-9.892
		l-3.278-5.2h3.877c0.885,0,1.602-0.717,1.602-1.602v-4.762c0-0.884-0.717-1.601-1.602-1.601h-4.764c-0.2,0-0.398,0.037-0.585,0.11
		c-0.879,0.345-1.837,0.808-2.604,1.389l-5.146-8.163h3.538c0.885,0,1.602-0.717,1.602-1.602V0.807c0-0.885-0.717-1.602-1.602-1.602
		h-4.564c-0.2,0-0.398,0.038-0.585,0.111c-0.81,0.318-1.69,0.74-2.414,1.269l-4.382-6.951c-0.181-0.286-0.446-0.507-0.759-0.633
		l-8.719-3.498c-0.569-0.228-1.22-0.112-1.674,0.302s-0.633,1.049-0.458,1.638l10.443,35.356h-28.99
		c-0.106,0-0.214,0.011-0.318,0.032c-0.097,0.02-1.854,0.379-4.036,1.008l-6.306-12.295c-0.273-0.535-0.824-0.871-1.425-0.871
		h-6.054c-0.49,0-0.954,0.226-1.258,0.611c-0.304,0.385-0.414,0.889-0.299,1.366l3.78,15.662h-2.097
		c-0.885,0-1.602,0.717-1.602,1.602c0,0.885,0.717,1.602,1.602,1.602h2.057l-3.74,15.496c-0.115,0.478-0.005,0.981,0.299,1.366
		c0.304,0.386,0.768,0.611,1.258,0.611h6.054c0.601,0,1.151-0.336,1.425-0.871l6.196-12.081c2.27,0.544,4.125,0.829,4.224,0.844
		c0.079,0.012,0.16,0.019,0.24,0.019h28.969l-10.422,35.282c-0.175,0.589,0.004,1.226,0.458,1.639
		c0.3,0.272,0.686,0.417,1.077,0.417c0.201,0,0.403-0.038,0.597-0.115l8.719-3.498c0.313-0.126,0.578-0.347,0.759-0.632l4.382-6.951
		c0.724,0.528,1.604,0.95,2.414,1.269c0.187,0.073,0.385,0.11,0.585,0.11h4.564c0.885,0,1.602-0.717,1.602-1.602v-4.563
		c0-0.884-0.717-1.602-1.602-1.602h-3.538l5.146-8.163c0.767,0.582,1.725,1.044,2.604,1.389c0.187,0.073,0.385,0.111,0.585,0.111
		h4.764c0.885,0,1.602-0.717,1.602-1.601v-4.763c0-0.884-0.717-1.602-1.602-1.602h-3.877l3.232-5.126h9.938
		c0.08,0,0.16-0.006,0.239-0.019c0.133-0.02,3.292-0.502,6.508-1.433c5.088-1.474,7.457-3.237,7.457-5.548
		C-250.844,30.707-255.102,29.117-258.305,28.198z M-259.542,36.472c-2.559,0.715-5.072,1.136-5.631,1.226h-10.744h-2.685h-2.685
		h-8.129h-3.199h-3.164h-30.103c-1.095-0.169-2.128-0.365-3.089-0.579l0.821-1.602h1.843c0.884,0,1.601-0.717,1.601-1.602
		c0-0.884-0.717-1.602-1.601-1.602h-1.758l-0.803-1.565c1.446-0.397,2.624-0.658,3.029-0.746h30.16h3.189h3.199h7.903h2.684h2.685
		h10.854c0.559,0.082,3.281,0.501,5.975,1.274c4.165,1.195,5.098,2.325,5.14,2.604C-254.108,34.006-254.79,35.145-259.542,36.472z
		 M-285.502,63.858v1.36h-2.645c-0.432-0.188-0.876-0.419-1.216-0.628c0.345-0.238,0.805-0.508,1.256-0.732H-285.502z
		 M-297.736,70.984L-280.23,40.9h1.459L-297.736,70.984z M-282.877,40.9l-18.801,32.309l-1.771,0.71l9.753-33.019H-282.877z
		 M-333.616,39.16l-5.45,10.627h-3.041l3.261-13.508l0.184-0.763h1.292h3.114h2.509l-0.391,0.763l-0.737,1.438L-333.616,39.16z
		 M-339.066,17.877l5.624,10.966l0.736,1.436l0.736,1.437l0.308,0.599h-1.847h-3.317h-1.797l-0.102-0.419l-3.383-14.017H-339.066z
		 M-298.279-4.22l19.555,31.02h-1.557l-18.066-31.047L-298.279-4.22z M-285.502,2.408v1.36h-2.604
		c-0.451-0.224-0.911-0.494-1.256-0.732c0.34-0.209,0.784-0.441,1.216-0.628H-285.502z M-301.8-5.632l18.871,32.432h-10.744
		l-9.775-33.093L-301.8-5.632z M-275.942,16.837v1.56h-2.806c-0.518-0.254-1.045-0.569-1.419-0.837
		c0.371-0.236,0.884-0.508,1.38-0.723H-275.942z M-278.746,49.229h2.804v1.56h-2.845c-0.496-0.215-1.009-0.485-1.38-0.722
		C-279.793,49.799-279.265,49.485-278.746,49.229z"/>
	<path fill="#050505" d="M-108.273,54.424c-0.632,0-1.144,0.513-1.144,1.144c0,0.926-0.704,1.68-1.569,1.68s-1.568-0.754-1.568-1.68
		c0-0.631-0.513-1.144-1.145-1.144h-0.055c-0.632,0-1.144,0.513-1.144,1.144c0,0.926-0.704,1.68-1.569,1.68
		c-0.781,0-1.43-0.616-1.548-1.418l5.71-16.056l1.341-3.494c0.188-0.493,0.123-1.047-0.176-1.481
		c-0.299-0.435-0.792-0.694-1.319-0.694h-14.879c-0.389,0-0.764,0.141-1.056,0.397l-0.195,0.171v-4.622
		c0-0.632-0.512-1.144-1.144-1.144h-0.793v-7.01c0-0.632-0.512-1.144-1.144-1.144h-10.137c-0.632,0-1.144,0.512-1.144,1.144v7.01
		h-0.827v-7.01c0-0.632-0.512-1.144-1.144-1.144h-10.137c-0.631,0-1.144,0.512-1.144,1.144v7.01h-3.997
		c-0.632,0-1.145,0.512-1.145,1.144v6.178h-5.894l-3.457-13.203c-0.185-0.705-0.821-1.195-1.549-1.195h-4.878v-7.373V9.235
		c0-0.884-0.717-1.601-1.601-1.601h-10.448c-0.884,0-1.601,0.717-1.601,1.601v12.597h-5.941c-0.729,0-1.364,0.491-1.549,1.195
		l-3.477,13.274l-3.598,0.01c-0.454,0.001-0.886,0.195-1.188,0.534s-0.448,0.79-0.399,1.241c0.021,0.185,0.504,4.575,1.628,9.314
		c0.811,3.412,1.73,6.088,2.775,8.054c-0.004,0.038-0.012,0.075-0.012,0.114c0,0.926-0.703,1.68-1.568,1.68s-1.569-0.754-1.569-1.68
		c0-0.631-0.512-1.144-1.144-1.144s-1.145,0.513-1.145,1.144c0,2.188,1.73,3.967,3.857,3.967c1.07,0,2.04-0.451,2.74-1.178
		c0.699,0.727,1.669,1.178,2.74,1.178c1.07,0,2.041-0.451,2.74-1.178c0.699,0.727,1.669,1.178,2.74,1.178
		c1.07,0,2.041-0.451,2.74-1.178c0.699,0.727,1.67,1.178,2.74,1.178c1.071,0,2.041-0.451,2.74-1.178
		c0.7,0.727,1.67,1.178,2.74,1.178c1.071,0,2.041-0.451,2.741-1.178c0.699,0.727,1.669,1.178,2.74,1.178
		c1.07,0,2.041-0.451,2.74-1.178c0.699,0.727,1.67,1.178,2.74,1.178s2.041-0.451,2.74-1.178c0.699,0.727,1.67,1.178,2.74,1.178
		c1.071,0,2.041-0.451,2.74-1.178c0.7,0.727,1.67,1.178,2.74,1.178c1.057,0,2.014-0.439,2.711-1.149
		c0.697,0.709,1.654,1.149,2.711,1.149c1.07,0,2.04-0.451,2.74-1.178c0.699,0.727,1.669,1.178,2.74,1.178
		c1.07,0,2.04-0.451,2.74-1.178c0.699,0.727,1.669,1.178,2.74,1.178c1.07,0,2.041-0.451,2.74-1.178
		c0.699,0.727,1.67,1.178,2.74,1.178c1.071,0,2.041-0.451,2.74-1.178c0.7,0.727,1.67,1.178,2.74,1.178
		c1.071,0,2.041-0.451,2.741-1.178c0.699,0.727,1.669,1.178,2.74,1.178c1.07,0,2.041-0.451,2.74-1.178
		c0.699,0.727,1.67,1.178,2.74,1.178c0.905,0,1.736-0.325,2.395-0.863c0.146-0.065,0.283-0.152,0.404-0.259
		c0.695,0.693,1.64,1.122,2.682,1.122c1.071,0,2.041-0.451,2.74-1.178c0.7,0.727,1.67,1.178,2.74,1.178
		c2.127,0,3.857-1.779,3.857-3.967C-107.129,54.937-107.642,54.424-108.273,54.424z M-180.321,12.857h-7.245v-2.021h7.245V12.857z
		 M-187.566,21.832V16.06h7.245v5.772v0.008h-7.245V21.832z M-189.332,25.034c0.054,0.005,0.109,0.008,0.164,0.008h10.448
		c0.056,0,0.11-0.003,0.164-0.008h5.078l2.932,11.195l0.017,0.063h-27.893l0,0l2.948-11.258H-189.332z M-198.447,39.494h29.993
		c0.148,0,0.294-0.022,0.434-0.063h38.261c0.389,0,0.764-0.141,1.056-0.397l1.969-1.727h11.947l-0.514,1.338
		c-0.005,0.012-0.009,0.025-0.014,0.037l-1.132,3.184h-86.692c-0.152-0.899-0.274-1.704-0.367-2.357L-198.447,39.494z
		 M-159.054,36.229v-5.034h7.849v5.034v0.611h-7.849V36.229z M-153.912,23.042h7.849v5.645h-7.849V23.042z M-140.661,23.042h7.848
		v5.645h-7.848V23.042z M-130.876,36.84h-7.849v-0.611v-5.034h7.849v5.034V36.84z M-141.069,31.195v5.034v0.611h-7.849v-0.611
		v-5.034H-141.069z M-121.947,57.248c-0.083,0-0.164-0.009-0.243-0.022c-0.75-0.126-1.326-0.82-1.326-1.658
		c0-0.631-0.512-1.144-1.144-1.144h-0.055c-0.632,0-1.145,0.513-1.145,1.144c0,0.926-0.703,1.68-1.568,1.68s-1.569-0.754-1.569-1.68
		c0-0.631-0.513-1.144-1.144-1.144h-0.055c-0.632,0-1.145,0.513-1.145,1.144c0,0.926-0.704,1.68-1.569,1.68
		c-0.864,0-1.568-0.754-1.568-1.68c0-0.631-0.513-1.144-1.145-1.144h-0.055c-0.632,0-1.144,0.513-1.144,1.144
		c0,0.926-0.704,1.68-1.569,1.68s-1.568-0.754-1.568-1.68c0-0.631-0.513-1.144-1.145-1.144h-0.055c-0.632,0-1.144,0.513-1.144,1.144
		c0,0.926-0.704,1.68-1.569,1.68s-1.569-0.754-1.569-1.68c0-0.631-0.512-1.144-1.144-1.144h-0.055c-0.632,0-1.144,0.513-1.144,1.144
		c0,0.926-0.704,1.68-1.569,1.68s-1.569-0.754-1.569-1.68c0-0.631-0.512-1.144-1.144-1.144h-0.056c-0.631,0-1.144,0.513-1.144,1.144
		c0,0.926-0.703,1.68-1.568,1.68c-0.851,0-1.543-0.728-1.567-1.632c0-0.016,0.003-0.032,0.003-0.048
		c0-0.631-0.513-1.144-1.145-1.144l-0.001,0.001c-0.002,0-0.003-0.001-0.003-0.001c-0.632,0-1.145,0.513-1.145,1.144
		c0,0.017,0.003,0.033,0.003,0.048c-0.024,0.904-0.717,1.632-1.567,1.632c-0.865,0-1.568-0.754-1.568-1.68
		c0-0.631-0.513-1.144-1.145-1.144h-0.055c-0.632,0-1.144,0.513-1.144,1.144c0,0.926-0.704,1.68-1.569,1.68s-1.569-0.754-1.569-1.68
		c0-0.631-0.512-1.144-1.144-1.144h-0.055c-0.632,0-1.144,0.513-1.144,1.144c0,0.926-0.704,1.68-1.569,1.68s-1.569-0.754-1.569-1.68
		c0-0.631-0.512-1.144-1.144-1.144h-0.055c-0.632,0-1.145,0.513-1.145,1.144c0,0.926-0.703,1.68-1.568,1.68s-1.569-0.754-1.569-1.68
		c0-0.631-0.512-1.144-1.144-1.144h-0.055c-0.632,0-1.145,0.513-1.145,1.144c0,0.926-0.704,1.68-1.569,1.68s-1.568-0.754-1.568-1.68
		c0-0.631-0.513-1.144-1.145-1.144h-0.055c-0.632,0-1.144,0.513-1.144,1.144c0,0.926-0.704,1.68-1.569,1.68s-1.568-0.754-1.568-1.68
		c0-0.631-0.513-1.144-1.145-1.144h-0.055c-0.632,0-1.144,0.513-1.144,1.144c0,0.926-0.704,1.68-1.569,1.68s-1.569-0.754-1.569-1.68
		c0-0.631-0.512-1.144-1.144-1.144h-0.055c-0.632,0-1.144,0.513-1.144,1.144c0,0.362-0.109,0.697-0.292,0.972
		c-0.107-0.085-0.226-0.159-0.357-0.215c-1.522-0.658-3.194-4.261-4.473-9.636c-0.243-1.023-0.455-2.035-0.64-2.992h85.711
		l-4.615,12.978c-0.064,0.182-0.093,0.367-0.092,0.549c0.001,0.006,0.001,0.012,0.001,0.018
		C-121.852,57.245-121.899,57.248-121.947,57.248z"/>
	<path fill="#050505" d="M-458.551,142.338h-6.639c-2.462,0-4.466,2.004-4.466,4.467v65.576c0,2.464,2.004,4.467,4.466,4.467h52.292
		c2.463,0,4.466-2.003,4.466-4.467v-65.576c0-2.463-2.003-4.467-4.466-4.467h-6.639c-0.124-2.456-2.041-4.416-4.386-4.416h-4.303
		c-0.56-3.201-3.357-5.642-6.716-5.642h-7.227c-3.358,0-6.156,2.44-6.716,5.642h-5.28
		C-456.511,137.922-458.428,139.882-458.551,142.338z M-419.735,149.182h3.237v57.915h-45.174v-57.915h3.318
		c0.568,1.881,2.23,3.246,4.188,3.246h30.242C-421.965,152.428-420.303,151.063-419.735,149.182z M-411.634,146.805v65.576
		c0,0.697-0.567,1.265-1.264,1.265h-52.292c-0.697,0-1.264-0.567-1.264-1.265v-65.576c0-0.696,0.567-1.264,1.264-1.264h6.627v0.438
		h-4.71c-0.884,0-1.601,0.717-1.601,1.602v61.118c0,0.885,0.717,1.602,1.601,1.602h48.377c0.884,0,1.602-0.717,1.602-1.602V147.58
		c0-0.885-0.717-1.602-1.602-1.602h-4.629v-0.438h6.627C-412.201,145.541-411.634,146.108-411.634,146.805z M-455.36,142.588
		c0-0.807,0.536-1.464,1.195-1.464h6.777l0,0l0,0c0.884,0,1.602-0.717,1.602-1.602v-0.422c0-1.995,1.623-3.618,3.618-3.618h7.227
		c1.995,0,3.618,1.623,3.618,3.618v0.42c0,0.001,0,0.001,0,0.001c0,0.886,0.717,1.603,1.601,1.603l0,0h5.8
		c0.659,0,1.196,0.657,1.196,1.464v1.348c0,0.001,0,0.003,0,0.004c0,0.002,0,0.003,0,0.005v3.817c0,0.807-0.537,1.464-1.196,1.464
		h-30.242c-0.659,0-1.195-0.657-1.195-1.464v-3.822V142.588z"/>
	<path fill="#050505" d="M-439.358,145.149c2.58,0,4.68-2.099,4.68-4.679s-2.1-4.68-4.68-4.68s-4.679,2.1-4.679,4.68
		S-441.938,145.149-439.358,145.149z M-439.358,138.994c0.814,0,1.477,0.662,1.477,1.477s-0.662,1.477-1.477,1.477
		c-0.814,0-1.477-0.662-1.477-1.477S-440.172,138.994-439.358,138.994z"/>
	<path fill="#050505" d="M-459.082,161.22c0,0.884,0.717,1.602,1.602,1.602h36.13c0.885,0,1.602-0.718,1.602-1.602
		c0-0.885-0.717-1.602-1.602-1.602h-36.13C-458.365,159.618-459.082,160.335-459.082,161.22z"/>
	<path fill="#050505" d="M-435.823,170.726h-21.657c-0.885,0-1.602,0.717-1.602,1.602c0,0.884,0.717,1.601,1.602,1.601h21.657
		c0.884,0,1.602-0.717,1.602-1.601C-434.221,171.442-434.938,170.726-435.823,170.726z"/>
	<path fill="#050505" d="M-435.823,182.903h-21.657c-0.885,0-1.602,0.718-1.602,1.602c0,0.885,0.717,1.602,1.602,1.602h21.657
		c0.884,0,1.602-0.717,1.602-1.602C-434.221,183.621-434.938,182.903-435.823,182.903z"/>
	<path fill="#050505" d="M-435.823,195.082h-21.657c-0.885,0-1.602,0.717-1.602,1.601c0,0.885,0.717,1.602,1.602,1.602h21.657
		c0.884,0,1.602-0.717,1.602-1.602C-434.221,195.799-434.938,195.082-435.823,195.082z"/>
	<path fill="#050505" d="M-423.865,167.152l-4.063,4.246l-1.119-1.519c-0.525-0.712-1.527-0.864-2.239-0.339
		c-0.712,0.523-0.864,1.526-0.339,2.238l2.248,3.052c0.281,0.38,0.715,0.617,1.187,0.647c0.035,0.002,0.069,0.004,0.103,0.004
		c0.435,0,0.854-0.178,1.157-0.494l5.379-5.621c0.612-0.639,0.59-1.652-0.049-2.264
		C-422.239,166.492-423.253,166.514-423.865,167.152z"/>
	<path fill="#050505" d="M-423.865,179.866l-4.063,4.245l-1.119-1.519c-0.525-0.712-1.527-0.864-2.239-0.339
		c-0.712,0.524-0.864,1.527-0.339,2.238l2.248,3.052c0.281,0.381,0.715,0.618,1.187,0.647c0.035,0.003,0.069,0.004,0.103,0.004
		c0.435,0,0.854-0.178,1.157-0.494l5.379-5.621c0.612-0.639,0.589-1.652-0.049-2.264S-423.253,179.227-423.865,179.866z"/>
	<path fill="#050505" d="M-423.865,192.579l-4.063,4.245l-1.119-1.518c-0.525-0.713-1.527-0.864-2.239-0.34
		c-0.712,0.525-0.864,1.527-0.339,2.239l2.248,3.051c0.281,0.381,0.715,0.618,1.187,0.648c0.035,0.002,0.069,0.003,0.103,0.003
		c0.435,0,0.854-0.177,1.157-0.494l5.379-5.62c0.612-0.64,0.589-1.652-0.049-2.265C-422.239,191.918-423.253,191.94-423.865,192.579
		z"/>
	<path fill="#050505" d="M-579.694,215.25c18.603,0,33.737-15.135,33.737-33.737c0-8.902-3.468-17.01-9.122-23.045
		c2.705-4.446,5.956-10.485,5.956-13.83c0-5.933-4.827-10.76-10.76-10.76c-5.933,0-10.76,4.827-10.76,10.76
		c0,1.268,0.467,2.922,1.194,4.729c-3.233-1.032-6.675-1.592-10.246-1.592c-6.295,0-12.192,1.735-17.241,4.749
		c-1.567-2.632-4.44-4.4-7.72-4.4c-4.951,0-8.979,4.027-8.979,8.979c0,2.301,1.842,6.11,3.728,9.409
		c-2.254,4.521-3.525,9.615-3.525,15.001C-613.432,200.115-598.297,215.25-579.694,215.25z M-599.114,183.114
		c0.2,3.437,1.04,6.963,2.487,10.501c-3.185,1.262-6.06,2.867-8.498,4.778c-2.945-4.422-4.77-9.651-5.062-15.279H-599.114z
		 M-594.18,171.922c3.974,1.296,8.343,2.086,12.885,2.306v5.685h-14.61C-595.727,177.14-595.1,174.459-594.18,171.922z
		 M-563.482,179.912h-14.611v-5.625c4.565-0.051,9-0.679,13.079-1.819C-564.2,174.843-563.647,177.338-563.482,179.912z
		 M-565.573,192.036c-3.924-1.044-8.162-1.619-12.52-1.667v-7.255h14.611C-563.684,186.236-564.457,189.233-565.573,192.036z
		 M-595.906,183.114h14.61v7.313c-4.326,0.21-8.493,0.938-12.314,2.126C-594.836,189.604-595.693,186.431-595.906,183.114z
		 M-581.295,193.633v16.002c-2.906-2.746-7.645-7.793-10.947-14.157C-588.843,194.46-585.143,193.83-581.295,193.633z
		 M-578.093,209.631v-16.06c3.896,0.045,7.678,0.534,11.188,1.421C-570.214,201.577-575.115,206.812-578.093,209.631z
		 M-578.093,171.084v-17.901c3.201,3.075,8.619,8.966,11.897,16.294C-569.903,170.481-573.934,171.036-578.093,171.084z
		 M-581.295,153.191v17.831c-4.117-0.211-8.065-0.918-11.657-2.065C-589.656,161.877-584.422,156.195-581.295,153.191z
		 M-603.216,200.962c0.01-0.007,0.021-0.012,0.03-0.02c2.247-1.768,4.917-3.251,7.887-4.413c1.425,2.835,3.233,5.664,5.411,8.445
		c2.25,2.873,4.487,5.188,6.194,6.811C-591.516,210.758-598.414,206.759-603.216,200.962z M-575.694,211.785
		c1.707-1.622,3.944-3.938,6.194-6.811c2.336-2.984,4.247-6.021,5.715-9.064c3.11,1.051,5.938,2.437,8.354,4.116
		C-560.248,206.326-567.459,210.703-575.694,211.785z M-553.618,197.386c-2.589-1.796-5.595-3.281-8.885-4.415
		c1.29-3.322,2.042-6.629,2.229-9.856h11.073C-549.471,188.32-551.052,193.186-553.618,197.386z M-560.274,179.912
		c-0.16-2.756-0.731-5.574-1.695-8.416c3.367-1.211,6.421-2.794,9.02-4.704c2.171,3.929,3.503,8.383,3.749,13.12H-560.274z
		 M-552.325,144.638c0,2.231-2.462,7.086-5.118,11.538c-0.567,0.951-1.143,1.883-1.706,2.768c-0.248,0.389-0.493,0.77-0.733,1.138
		c-0.708-1.084-1.455-2.271-2.192-3.493c-1.099-1.824-2.177-3.732-3.075-5.513c-1.347-2.672-2.29-5.058-2.29-6.438
		c0-4.167,3.39-7.558,7.557-7.558S-552.325,140.471-552.325,144.638z M-567.5,153.521c2.52,4.815,5.728,9.514,6.3,10.343
		c0.299,0.434,0.792,0.691,1.318,0.691c0.526,0,1.019-0.258,1.317-0.691c0.228-0.329,0.87-1.269,1.721-2.583
		c0.783,0.885,1.517,1.813,2.195,2.784c-2.414,1.812-5.287,3.309-8.473,4.448c-1.536-3.539-3.668-7.091-6.369-10.578
		c-2.145-2.769-4.277-5.029-5.949-6.66C-572.657,151.665-569.992,152.432-567.5,153.521z M-583.937,151.274
		c-1.673,1.63-3.807,3.892-5.954,6.661c-2.536,3.271-4.569,6.6-6.081,9.92c-1.152-0.477-2.255-1.005-3.304-1.578
		c2.418-4.244,3.599-7.252,3.599-9.175c0-0.517-0.046-1.022-0.131-1.516C-592.267,153.379-588.244,151.875-583.937,151.274z
		 M-604.655,151.326c2.168,0,4.06,1.201,5.047,2.972c0.464,0.831,0.729,1.787,0.729,2.805c0,0.188-0.037,0.444-0.112,0.764
		c-0.299,1.278-1.226,3.582-2.993,6.737c-0.481,0.857-1.025,1.78-1.635,2.76c-0.327,0.525-0.671,1.066-1.037,1.625
		c-0.581-0.888-1.11-1.732-1.593-2.535c-0.698-1.157-1.298-2.225-1.807-3.192c-1.679-3.195-2.376-5.327-2.376-6.158
		C-610.432,153.918-607.84,151.326-604.655,151.326z M-607.905,169.832c0.95,1.502,1.703,2.604,1.932,2.936
		c0.299,0.434,0.792,0.691,1.317,0.691c0.526,0,1.019-0.258,1.318-0.691c0.058-0.083,1.114-1.615,2.427-3.738
		c1.184,0.651,2.431,1.248,3.732,1.785c-1.11,3.072-1.762,6.122-1.935,9.098h-11.073
		C-610.002,176.358-609.207,172.965-607.905,169.832z"/>
	<path fill="#050505" d="M-606.128,160.574c0.46,0.171,0.955,0.269,1.473,0.269c2.339,0,4.242-1.902,4.242-4.241
		c0-0.521-0.099-1.019-0.272-1.48c-0.603-1.609-2.152-2.761-3.97-2.761c-2.338,0-4.241,1.902-4.241,4.241
		C-608.896,158.422-607.741,159.974-606.128,160.574z M-604.655,154.648c1.078,0,1.954,0.876,1.954,1.953
		c0,0.096-0.009,0.189-0.023,0.281c-0.124,0.851-0.795,1.523-1.646,1.649c-0.093,0.014-0.188,0.022-0.286,0.022
		c-1.077,0-1.953-0.876-1.953-1.953S-605.732,154.648-604.655,154.648z"/>
	<path fill="#050505" d="M-559.882,149.004c2.751,0,4.989-2.237,4.989-4.988s-2.238-4.988-4.989-4.988s-4.989,2.237-4.989,4.988
		S-562.633,149.004-559.882,149.004z M-559.882,141.314c1.489,0,2.701,1.212,2.701,2.701s-1.212,2.701-2.701,2.701
		c-1.49,0-2.702-1.212-2.702-2.701S-561.372,141.314-559.882,141.314z"/>
	<path fill="#050505" d="M-284.916,190.021l-5.241,5.476l-1.61-2.187c-0.524-0.711-1.527-0.863-2.239-0.339
		s-0.863,1.527-0.339,2.239l2.74,3.719c0.28,0.381,0.714,0.617,1.187,0.648c0.034,0.002,0.068,0.003,0.103,0.003
		c0.436,0,0.854-0.177,1.156-0.494l6.558-6.851c0.611-0.639,0.589-1.652-0.05-2.264S-284.305,189.383-284.916,190.021z"/>
	<path fill="#050505" d="M-304.54,171.171l-5.24,5.476l-1.611-2.187c-0.524-0.712-1.526-0.864-2.239-0.339
		c-0.712,0.524-0.863,1.526-0.339,2.238l2.74,3.719c0.28,0.381,0.715,0.618,1.187,0.648c0.034,0.002,0.068,0.004,0.103,0.004
		c0.436,0,0.854-0.178,1.157-0.494l6.557-6.851c0.611-0.64,0.59-1.653-0.05-2.265C-302.915,170.51-303.929,170.532-304.54,171.171z"
		/>
	<path fill="#050505" d="M-267.175,151.531h-5.091V146.7c0-2.202-2.109-3.993-4.701-3.993s-4.7,1.791-4.7,3.993v4.831h-11.926V146.7
		c0-2.202-2.108-3.993-4.7-3.993s-4.7,1.791-4.7,3.993v4.831h-11.926V146.7c0-2.202-2.109-3.993-4.7-3.993
		c-2.592,0-4.701,1.791-4.701,3.993v4.831h-5.091c-3.112,0-5.646,2.532-5.646,5.645v43.602c0,3.112,2.533,5.645,5.646,5.645h62.236
		c3.112,0,5.645-2.532,5.645-5.645v-43.602C-261.53,154.063-264.063,151.531-267.175,151.531z M-331.854,168.375h14.13v15.646
		h-14.13V168.375z M-315.436,168.375h16.022v15.646h-16.022V168.375z M-297.125,168.375h16.022v15.646h-16.022V168.375z
		 M-278.815,168.375h14.083v15.646h-14.083V168.375z M-278.465,151.531V146.7c0-0.314,0.598-0.791,1.498-0.791
		s1.498,0.477,1.498,0.791v4.831v3.203v3.359c0,0.315-0.598,0.791-1.498,0.791s-1.498-0.476-1.498-0.791v-3.359V151.531z
		 M-299.791,151.531V146.7c0-0.314,0.598-0.791,1.498-0.791s1.498,0.477,1.498,0.791v4.831v3.203v3.359
		c0,0.315-0.598,0.791-1.498,0.791s-1.498-0.476-1.498-0.791v-3.359V151.531z M-321.117,151.531V146.7
		c0-0.314,0.597-0.791,1.498-0.791c0.9,0,1.497,0.477,1.497,0.791v4.831v3.203v3.359c0,0.315-0.597,0.791-1.497,0.791
		c-0.901,0-1.498-0.476-1.498-0.791v-3.359V151.531z M-331.854,157.176c0-1.346,1.096-2.441,2.442-2.441h5.091v3.359
		c0,2.202,2.109,3.994,4.701,3.994c2.591,0,4.7-1.792,4.7-3.994v-3.359h11.926v3.359c0,2.202,2.108,3.994,4.7,3.994
		s4.7-1.792,4.7-3.994v-3.359h11.926v3.359c0,2.202,2.108,3.994,4.7,3.994s4.701-1.792,4.701-3.994v-3.359h5.091
		c1.347,0,2.442,1.096,2.442,2.441v7.997h-67.121V157.176z M-331.854,200.777v-14.469h14.13v16.91h-11.688
		C-330.758,203.219-331.854,202.123-331.854,200.777z M-315.436,186.309h16.022v16.91h-16.022V186.309z M-297.125,186.309h16.022
		v16.91h-16.022V186.309z M-264.732,200.777c0,1.346-1.096,2.441-2.442,2.441h-11.641v-16.91h14.083V200.777z"/>
	<path fill="#050505" d="M-125.588,168.567v-5.576c0-0.056-0.003-0.11-0.009-0.166c-0.696-6.696-4.243-12.876-9.983-17.398
		c-5.856-4.613-13.653-7.153-21.955-7.153c-8.425,0-15.568,2.322-21.231,6.901c-5.21,4.212-8.899,10.241-10.67,17.434
		c-0.031,0.125-0.047,0.254-0.047,0.383v5.575c-5.581,0.539-9.917,4.295-9.917,8.838v4.87c0,4.606,4.458,8.406,10.15,8.861
		c0.444,3.423,2.248,6.424,4.853,8.441v8.247c0,0.885,0.717,1.602,1.602,1.602c0.881,0,1.596-0.712,1.601-1.592
		c0-0.003,0-0.006,0-0.01v-6.436c1.429,0.555,2.979,0.861,4.6,0.861h2.19c1.777,2.287,3.961,4.214,6.435,5.661
		c3.202,1.874,6.89,2.944,10.812,2.944c3.835,0,7.445-1.021,10.597-2.818c6.921-3.945,11.628-11.627,11.628-20.437v-12.824
		c0-0.004-0.001-0.008-0.001-0.013c0-0.036-0.002-0.072-0.005-0.108c-0.002-0.018-0.002-0.035-0.004-0.053
		c-0.004-0.034-0.01-0.067-0.016-0.101c-0.003-0.02-0.006-0.039-0.01-0.059c-0.006-0.027-0.014-0.055-0.021-0.083
		c-0.006-0.023-0.012-0.048-0.02-0.071c-0.007-0.021-0.016-0.042-0.023-0.063c-0.01-0.028-0.02-0.056-0.031-0.083
		c-0.008-0.018-0.017-0.034-0.024-0.051c-0.015-0.029-0.028-0.06-0.044-0.088c-0.009-0.017-0.019-0.031-0.028-0.047
		c-0.017-0.028-0.033-0.057-0.052-0.084c-0.013-0.018-0.026-0.035-0.039-0.052c-0.018-0.023-0.034-0.047-0.053-0.069
		c-0.018-0.021-0.036-0.041-0.055-0.061c-0.017-0.018-0.031-0.035-0.048-0.052c-0.022-0.022-0.046-0.042-0.069-0.063
		c-0.015-0.014-0.029-0.027-0.045-0.04c-0.024-0.02-0.05-0.038-0.075-0.057c-0.017-0.012-0.032-0.024-0.049-0.035
		c-0.023-0.017-0.049-0.03-0.073-0.045c-0.021-0.012-0.04-0.025-0.062-0.036s-0.043-0.021-0.064-0.031
		c-0.026-0.013-0.053-0.025-0.08-0.037c-0.018-0.007-0.036-0.013-0.054-0.02c-0.032-0.012-0.064-0.024-0.098-0.034
		c-0.017-0.005-0.033-0.008-0.05-0.013c-0.035-0.009-0.07-0.019-0.106-0.025c-0.005-0.001-0.009-0.002-0.013-0.003
		c-1.61-0.296-3.814-1.1-6.172-2.113c-6.308-2.711-13.715-6.93-13.817-6.987c-0.56-0.319-1.256-0.272-1.769,0.119
		c-4.665,3.573-9.613,5.748-13.339,7.021c-3.537,1.207-5.974,1.603-6.022,1.61c-0.31,0.048-0.583,0.183-0.803,0.373
		c-0.698,0.173-1.216,0.802-1.216,1.553v12.824c0,4.159,1.05,8.065,2.885,11.446h-0.097c-1.666,0-3.233-0.429-4.6-1.182v-26.574
		v-0.725c0-11.998,10.765-21.76,23.995-21.76c13.231,0,23.995,9.762,23.995,21.76v0.474v37.075v0.01
		c0,0.884,0.717,1.601,1.602,1.601s1.602-0.717,1.602-1.601v-37.102v-0.457c0-13.764-12.201-24.962-27.198-24.962
		s-27.197,11.198-27.197,24.962v0.742v23.694c-1.106-1.56-1.76-3.463-1.76-5.517c0-0.243-0.056-0.472-0.151-0.678v-17.187
		c0.018-0.097,0.027-0.194,0.027-0.296v-0.008v-8.131c1.62-6.425,4.912-11.789,9.528-15.523c5.079-4.105,11.545-6.188,19.218-6.188
		c7.586,0,14.68,2.297,19.973,6.467c5.032,3.964,8.145,9.336,8.772,15.134v7.933c0,0.003,0,0.005,0,0.008
		c0.001,0.068,0.007,0.136,0.015,0.201v18.359c0,0.876,0.703,1.589,1.579,1.601l0.058,0.002c0.052,0.001,0.104,0.002,0.155,0.002
		c6.23,0,11.3-3.996,11.3-8.907v-4.87C-115.684,172.865-120.014,169.111-125.588,168.567z M-176.182,187.601v-11.71
		c0.965-0.188,2.853-0.609,5.282-1.405c2.249-0.737,4.962-1.795,7.839-3.289c2.006-1.042,4.092-2.295,6.154-3.799
		c1.343,0.749,3.994,2.202,7.043,3.729c2.53,1.269,5.334,2.589,7.891,3.604c1.379,0.547,2.683,1.003,3.836,1.315v11.555
		c0,11.057-8.534,20.052-19.022,20.052c-5.01,0-9.573-2.053-12.974-5.402h2.434c0.67,1.24,1.981,2.084,3.486,2.084h4.543
		c2.184,0,3.961-1.776,3.961-3.96s-1.777-3.96-3.961-3.96h-4.543c-1.718,0-3.18,1.102-3.727,2.633h-4.828
		C-174.918,195.8-176.182,191.853-176.182,187.601z M-118.886,182.274c0,2.807-2.892,5.146-6.687,5.618v-16.106
		c3.795,0.472,6.687,2.812,6.687,5.618V182.274z M-196.198,177.404c0-2.807,2.892-5.146,6.687-5.618v16.106
		c-3.795-0.472-6.687-2.812-6.687-5.618V177.404z"/>
	<path fill="#050505" d="M-540.238,308.659h-10.173c-0.114-0.106-0.246-0.197-0.394-0.269l-23.714-11.422
		c0.299-0.731,0.465-1.531,0.465-2.369c0-2.913-1.993-5.368-4.688-6.075v-2.954l5.877-8.021c0.357-0.486,0.41-1.133,0.137-1.671
		s-0.825-0.877-1.428-0.877h-12.374c-0.603,0-1.155,0.339-1.428,0.877s-0.22,1.185,0.136,1.671l5.877,8.022v4.042
		c0,0.066,0.005,0.133,0.014,0.198c-0.002,0.036-0.005,0.072-0.005,0.108c0,0.885,0.717,1.602,1.601,1.602
		c1.697,0,3.078,1.381,3.078,3.078s-1.381,3.078-3.078,3.078c-0.617,0-1.211-0.182-1.719-0.524h0
		c-0.07-0.048-0.136-0.101-0.202-0.154c-0.101-0.127-0.219-0.235-0.349-0.325c-0.148-0.162-0.28-0.338-0.391-0.526
		c-0.445-0.764-1.426-1.022-2.19-0.576c-0.641,0.374-0.924,1.124-0.736,1.807l-22.864,11.013c-0.148,0.071-0.28,0.162-0.394,0.269
		h-10.173c-0.885,0-1.602,0.717-1.602,1.602v4.488c0,0.885,0.717,1.602,1.602,1.602h1.859v31.588h-1.859
		c-0.885,0-1.602,0.717-1.602,1.601v4.489c0,0.884,0.717,1.601,1.602,1.601h79.115c0.885,0,1.602-0.717,1.602-1.601v-4.489
		c0-0.884-0.717-1.601-1.602-1.601h-1.859v-31.588h1.859c0.885,0,1.602-0.717,1.602-1.602v-4.488
		C-538.636,309.376-539.353,308.659-540.238,308.659z M-583.371,278.203h6.058l-3.029,4.135L-583.371,278.203z M-541.839,352.427
		h-75.913v-1.286h75.913V352.427z M-614.291,316.351h3.712v31.569h-3.712V316.351z M-552.729,347.92h-4.547v-31.569h4.547V347.92z
		 M-606.862,316.351h4.547v31.569h-4.547V316.351z M-560.993,347.92h-4.547v-31.569h4.547V347.92z M-569.257,347.92h-4.547v-31.569
		h4.547V347.92z M-577.521,347.92h-4.547v-31.569h4.547V347.92z M-585.786,347.92h-4.547v-31.569h4.547V347.92z M-594.051,347.92
		h-4.547v-31.569h4.547V347.92z M-545.3,347.92h-3.711v-31.569h3.711V347.92z M-541.839,313.148h-1.647h-72.618h-1.647v-1.287
		h75.913V313.148z M-583.732,299.879c1.014,0.653,2.185,1.002,3.397,1.002c1.443,0,2.772-0.49,3.834-1.312l18.872,9.09h-44.334
		L-583.732,299.879z"/>
	<path fill="#050505" d="M-157.176,328.076c-0.439-0.687-1.323-0.934-2.055-0.575c-0.041,0.021-4.168,2.041-6.901,3.13
		c-0.031,0.012-0.063,0.021-0.094,0.03c-0.069,0.019-0.142,0.027-0.221,0.027c-1.134,0-2.886-1.742-3.775-2.984l-7.765-17.128
		c-0.407-1.736-0.489-4.349,0.411-4.955c0.026-0.018,0.055-0.034,0.085-0.05c0.507-0.259,1.075-0.534,1.662-0.811
		c0.008-0.002,0.016-0.003,0.023-0.005c0.165-0.049,0.316-0.123,0.451-0.217c2.312-1.069,4.732-2.082,4.765-2.096
		c0.752-0.313,1.148-1.142,0.921-1.924l-5.618-19.363c-0.129-0.446-0.446-0.814-0.868-1.009s-0.907-0.196-1.33-0.004l-5.172,2.345
		c-0.008,0.003-0.014,0.008-0.021,0.012c-0.077,0.037-0.153,0.078-0.224,0.127c-0.005,0.003-0.009,0.006-0.013,0.01
		c-0.075,0.053-0.146,0.111-0.212,0.176l-0.006,0.006l-7.992,7.971c-0.191,0.191-0.331,0.428-0.407,0.688
		c-0.15,0.52-3.594,12.958,5.533,33.094c9.952,21.955,20.923,25.823,21.385,25.978c0.164,0.054,0.335,0.082,0.506,0.082
		c0.036,0,0.072-0.001,0.108-0.004l11.27-0.758c0.192-0.013,0.379-0.061,0.555-0.14l0.119-0.054c0.211-0.035,0.418-0.11,0.609-0.234
		c0.052-0.034,0.102-0.071,0.148-0.109l4.294-1.946c0.423-0.192,0.742-0.559,0.874-1.004s0.064-0.926-0.187-1.317L-157.176,328.076z
		 M-177.847,283.824l4.707,16.224c-0.589,0.254-1.328,0.576-2.119,0.93l-4.804-16.149L-177.847,283.824z M-163.851,347.406
		c-0.734-0.322-2.962-1.438-5.93-4.221c-6.126-5.743-10.614-14.012-13.301-19.938c-4.494-9.914-5.715-17.787-5.947-22.646
		c-0.2-4.191,0.279-6.919,0.484-7.863l5.779-5.764l4.571,15.367c-0.261,0.128-0.514,0.254-0.754,0.377
		c-0.145,0.073-0.286,0.156-0.418,0.245c-1.005,0.678-2.188,2.158-2.11,5.367c0.04,1.664,0.401,3.103,0.417,3.162
		c0.023,0.092,0.055,0.182,0.093,0.268l7.889,17.402c0.039,0.086,0.086,0.168,0.14,0.246c0.315,0.458,3.177,4.481,6.491,4.481
		c0.354,0,0.704-0.045,1.041-0.134c0.155-0.042,0.311-0.093,0.459-0.152c0.34-0.136,0.698-0.283,1.064-0.439l8.829,13.648
		L-163.851,347.406z M-151.752,346.021l-9.169-14.173c0.678-0.313,1.304-0.607,1.812-0.85l9.1,14.232L-151.752,346.021z"/>
	<path fill="#050505" d="M-155.431,295.974c0.572-0.849,1.049-1.665,1.429-2.451s0.663-1.569,0.851-2.35s0.281-1.608,0.281-2.482
		c0-1.925-0.518-3.43-1.554-4.512c-1.035-1.083-2.475-1.624-4.316-1.624c-1.093,0-2.108,0.229-3.045,0.688
		c-0.937,0.457-1.951,1.306-3.044,2.545l2.373,2.498c0.687-0.76,1.27-1.286,1.748-1.577c0.479-0.292,0.994-0.438,1.546-0.438
		c0.625,0,1.132,0.219,1.522,0.656c0.391,0.437,0.585,1.093,0.585,1.967c0,0.749-0.099,1.476-0.296,2.178
		c-0.198,0.703-0.505,1.437-0.922,2.202c-0.416,0.765-1.181,1.938-2.295,3.52l-4.06,5.746v3.169h12.24v-3.778h-7.478v-0.125
		C-157.481,298.766-156.003,296.822-155.431,295.974z"/>
	<path fill="#050505" d="M-143.503,282.883l-6.9,14.582v3.45h7.447v4.793h3.996v-4.793h2.312v-3.513h-2.312v-14.52H-143.503z
		 M-142.878,290.471l-0.078,2.123v4.809h-3.872l2.748-5.886c0.427-0.916,0.822-1.941,1.187-3.076h0.125L-142.878,290.471z"/>
	<polygon fill="#050505" points="-159.834,316.209 -159.834,308.47 -161.273,308.47 -161.273,311.545 -163.174,311.545 
		-163.174,308.47 -164.614,308.47 -164.614,316.209 -163.174,316.209 -163.174,312.816 -161.273,312.816 -161.273,316.209 	"/>
	<path fill="#050505" d="M-155.911,308.348c-0.903,0-1.595,0.342-2.075,1.025c-0.479,0.682-0.72,1.664-0.72,2.945
		c0,1.292,0.24,2.281,0.72,2.967c0.48,0.688,1.169,1.03,2.065,1.03c0.893,0,1.579-0.345,2.059-1.032
		c0.48-0.688,0.721-1.673,0.721-2.954s-0.238-2.265-0.715-2.951S-155.018,308.348-155.911,308.348z M-155.921,315.039
		c-0.431,0-0.758-0.23-0.979-0.693c-0.223-0.462-0.334-1.135-0.334-2.017c0-0.886,0.111-1.56,0.334-2.02
		c0.222-0.461,0.552-0.69,0.989-0.69c0.861,0,1.292,0.902,1.292,2.71C-154.619,314.136-155.053,315.039-155.921,315.039z"/>
	<path fill="#050505" d="M-152.046,308.47v4.987c0,0.941,0.201,1.654,0.604,2.136s0.988,0.723,1.757,0.723
		c0.787,0,1.39-0.243,1.806-0.728c0.417-0.486,0.625-1.189,0.625-2.11v-5.008h-1.43v5.124c0,0.463-0.083,0.819-0.249,1.07
		c-0.166,0.25-0.4,0.375-0.704,0.375c-0.652,0-0.979-0.492-0.979-1.477v-5.093H-152.046z"/>
	<path fill="#050505" d="M-141.204,316.209l-1.487-3.393c0.66-0.389,0.989-1.071,0.989-2.049c0-0.776-0.189-1.354-0.568-1.731
		c-0.38-0.378-0.968-0.566-1.766-0.566h-1.885v7.739h1.439v-3.012h0.514l1.223,3.012H-141.204z M-143.38,311.67
		c-0.148,0.192-0.392,0.289-0.73,0.289h-0.371v-2.245h0.36c0.328,0,0.571,0.084,0.728,0.251c0.157,0.168,0.236,0.449,0.236,0.845
		C-143.157,311.19-143.231,311.478-143.38,311.67z"/>
	<path fill="#050505" d="M-139.229,315.061c-0.483,0-1.015-0.188-1.594-0.566v1.424c0.474,0.265,1.047,0.397,1.721,0.397
		c0.688,0,1.215-0.192,1.58-0.577s0.548-0.938,0.548-1.662c0-0.452-0.1-0.854-0.299-1.207c-0.199-0.354-0.552-0.699-1.056-1.037
		c-0.374-0.248-0.637-0.469-0.787-0.662c-0.149-0.194-0.225-0.422-0.225-0.684c0-0.264,0.063-0.474,0.188-0.627
		c0.125-0.153,0.304-0.23,0.537-0.23c0.212,0,0.41,0.039,0.596,0.117c0.185,0.077,0.362,0.165,0.531,0.264l0.477-1.153
		c-0.547-0.332-1.116-0.498-1.71-0.498c-0.621,0-1.116,0.194-1.484,0.583c-0.369,0.388-0.554,0.914-0.554,1.577
		c0,0.346,0.047,0.649,0.141,0.91c0.094,0.262,0.226,0.497,0.396,0.707c0.172,0.21,0.423,0.43,0.755,0.659
		c0.381,0.262,0.654,0.498,0.82,0.712s0.249,0.449,0.249,0.707c0,0.261-0.069,0.468-0.209,0.619S-138.954,315.061-139.229,315.061z"
		/>
	<path fill="#050505" d="M-122.805,315.217c0-8.691-3.964-16.934-10.603-22.049c-0.7-0.539-1.706-0.409-2.246,0.291
		c-0.539,0.701-0.409,1.707,0.291,2.246c5.858,4.514,9.355,11.807,9.355,19.512c0,8.994-4.651,17.125-11.998,21.262l2.761-5.855
		c0.377-0.8,0.034-1.754-0.766-2.132c-0.801-0.377-1.754-0.034-2.132,0.766l-4.53,9.61c-0.21,0.446-0.203,0.965,0.02,1.404
		c0.223,0.44,0.635,0.754,1.119,0.85l11.12,2.196c0.104,0.021,0.209,0.03,0.312,0.03c0.749,0,1.419-0.528,1.569-1.291
		c0.172-0.867-0.393-1.71-1.261-1.881l-6.113-1.208C-127.864,334.182-122.805,325.156-122.805,315.217z"/>
</g>
<path fill="#050505" d="M5.059,76.893h46.782c3.421,3.33,8.086,5.386,13.225,5.386c10.462,0,18.975-8.512,18.975-18.975
	c0-6.93-3.735-13-9.297-16.313V7.32c0-0.927-0.752-1.678-1.678-1.678H21.782c-0.019,0-0.036,0.002-0.055,0.003
	c-0.034,0-0.07,0.002-0.104,0.005c-0.026,0.002-0.051,0.006-0.076,0.01c-0.029,0.004-0.059,0.008-0.087,0.014
	c-0.026,0.004-0.054,0.012-0.08,0.018c-0.026,0.006-0.053,0.013-0.08,0.021C21.275,5.721,21.25,5.73,21.225,5.74
	c-0.025,0.008-0.053,0.017-0.078,0.028c-0.024,0.01-0.048,0.021-0.072,0.032c-0.024,0.013-0.052,0.025-0.076,0.038
	c-0.023,0.013-0.045,0.025-0.067,0.039c-0.024,0.014-0.05,0.028-0.073,0.044c-0.024,0.016-0.047,0.033-0.069,0.05
	c-0.021,0.016-0.044,0.031-0.064,0.047c-0.025,0.021-0.05,0.045-0.075,0.068c-0.014,0.012-0.029,0.024-0.042,0.038L3.883,22.559
	c-0.003,0.002-0.003,0.003-0.006,0.005c-0.028,0.029-0.053,0.058-0.079,0.087c-0.011,0.012-0.022,0.023-0.033,0.037
	c-0.032,0.039-0.063,0.08-0.091,0.122c-0.021,0.03-0.04,0.063-0.06,0.095c-0.012,0.018-0.022,0.035-0.031,0.054
	c-0.016,0.027-0.028,0.056-0.041,0.084c-0.011,0.021-0.021,0.043-0.031,0.064c-0.01,0.025-0.02,0.052-0.028,0.079
	c-0.01,0.026-0.02,0.05-0.026,0.076c-0.009,0.026-0.015,0.055-0.021,0.081c-0.008,0.026-0.015,0.052-0.02,0.079
	c-0.012,0.052-0.02,0.106-0.025,0.162c-0.002,0.013-0.002,0.024-0.002,0.038c-0.004,0.042-0.007,0.086-0.007,0.129
	c0,0.002-0.001,0.004-0.001,0.006v51.46C3.38,76.142,4.131,76.893,5.059,76.893z M6.737,73.537V25.434h15.917V51.34l4.426-3.073
	l3.396,3.073l3.333-3.201l5.185,3.201V25.434h15.67v22.012c-5.158,3.395-8.573,9.234-8.573,15.858c0,3.767,1.107,7.278,3.01,10.233
	H6.737z M57.08,76.721L57.08,76.721c-0.855-0.512-1.655-1.103-2.396-1.762c-0.499-0.443-0.966-0.919-1.403-1.422
	c-2.385-2.743-3.834-6.321-3.834-10.233c0-4.619,2.018-8.775,5.216-11.637c1.009-0.904,2.137-1.676,3.356-2.295
	c2.119-1.076,4.512-1.687,7.046-1.687c2.25,0,4.387,0.482,6.321,1.342c1.207,0.536,2.333,1.221,3.356,2.031
	c3.614,2.863,5.94,7.286,5.94,12.245c0,8.612-7.007,15.619-15.618,15.619C62.149,78.922,59.419,78.117,57.08,76.721z M65.065,44.329
	c-2.489,0-4.865,0.486-7.046,1.361V24.445L71.387,10.91v34.505C69.407,44.714,67.28,44.329,65.065,44.329z M55.64,22.078H40.986
	L53.81,8.999h14.747L55.64,22.078z M22.469,8.999h14.867L24.059,22.078H9.16L22.469,8.999z"/>
<path fill="#050505" d="M26.423,59.985H8.77c-0.33,0-0.599,0.269-0.599,0.6v10.126c0,0.331,0.269,0.599,0.599,0.599h17.653
	c0.331,0,0.6-0.268,0.6-0.599V60.585C27.022,60.254,26.754,59.985,26.423,59.985z M25.823,70.112H9.369v-8.928h16.454V70.112z"/>
<rect x="10.367" y="62.238" fill="#050505" width="0.941" height="6.908"/>
<rect x="23.931" y="62.238" fill="#050505" width="0.797" height="6.908"/>
<rect x="11.989" y="62.238" fill="#050505" width="0.943" height="6.908"/>
<rect x="15.577" y="62.238" fill="#050505" width="0.941" height="6.908"/>
<rect x="18.909" y="62.238" fill="#050505" width="0.798" height="6.908"/>
<rect x="20.271" y="62.238" fill="#050505" width="0.796" height="6.908"/>
<rect x="17.142" y="62.238" fill="#050505" width="1.318" height="6.908"/>
<rect x="13.41" y="62.238" fill="#050505" width="1.521" height="6.908"/>
<rect x="21.728" y="62.238" fill="#050505" width="1.522" height="6.908"/>
<path fill="#0098EC" d="M72.291,61.893c-0.122-0.03-0.25-0.046-0.383-0.046h-2.729H67.55h-1.708l-3.617-4.277l-3.3-3.9
	c-0.244-0.288-0.564-0.471-0.905-0.55c-0.497-0.114-1.04-0.002-1.46,0.352c-0.707,0.6-0.795,1.658-0.197,2.366l1.657,1.959
	l5.763,6.813c0.149,0.176,0.332,0.315,0.533,0.416c0.23,0.114,0.485,0.178,0.748,0.178h3.859h2.985c0.928,0,1.679-0.751,1.679-1.678
	C73.587,62.729,73.034,62.065,72.291,61.893z"/>
<path fill="#050505" d="M202.296,48.574l12.817,3.938l7.368,18.349c-0.162,0.169-0.291,0.374-0.368,0.611l-3.601,11.041
	c-0.117,0.36-0.104,0.751,0.04,1.102l10.025,24.587c-0.375,1.195-0.578,2.465-0.578,3.783c0,6.978,5.677,12.654,12.655,12.654
	s12.655-5.677,12.655-12.654c0-1.116-0.146-2.198-0.419-3.229l22.859-9.752c0.813-0.347,1.191-1.287,0.844-2.101
	c-0.347-0.813-1.287-1.192-2.101-0.845l-22.81,9.73c-0.467-0.828-1.021-1.599-1.655-2.298l21.458-8.88
	c0.28-0.116,0.503-0.339,0.619-0.619s0.116-0.595,0-0.875l-11.104-26.831c-0.241-0.584-0.91-0.861-1.494-0.62l-2.262,0.937
	l-7.848-18.963c-0.116-0.28-0.339-0.503-0.619-0.619c-0.279-0.116-0.595-0.116-0.875-0.001l-20.403,8.445
	c-0.28,0.115-0.503,0.338-0.619,0.618s-0.116,0.595-0.001,0.876l7.849,18.963l-2.627,1.087c-0.584,0.241-0.861,0.91-0.62,1.494
	l8.625,20.84c-0.888,0.038-1.753,0.166-2.585,0.379l-19.722-49.112c-0.181-0.449-0.554-0.793-1.016-0.935l-13.549-4.162
	c-0.845-0.26-1.741,0.215-2.001,1.061C200.976,47.418,201.451,48.314,202.296,48.574z M229.433,57.141l5.648-2.338l2.181,5.269
	l6.991-2.894l-2.18-5.269l5.649-2.338l7.392,17.861l-18.29,7.569L229.433,57.141z M240.655,102.531c0.265,0,0.526,0.014,0.786,0.035
	c0.963,0.08,1.886,0.304,2.745,0.652c0.087,0.034,0.173,0.07,0.259,0.107c0.865,0.381,1.662,0.887,2.369,1.496
	c0.743,0.64,1.388,1.393,1.902,2.232c0.555,0.902,0.961,1.906,1.187,2.976c0.134,0.63,0.205,1.284,0.205,1.954
	c0,5.212-4.241,9.452-9.453,9.452s-9.453-4.24-9.453-9.452c0-3.418,1.824-6.418,4.55-8.079c0.904-0.551,1.908-0.954,2.979-1.177
	C239.353,102.6,239.996,102.531,240.655,102.531z M234.034,78.686l7.95-3.291l3.079,7.439l9.391-3.887l-3.079-7.439l7.951-3.29
	l10.229,24.717l-21.406,8.859c-1.593-1.175-3.47-1.985-5.507-2.308L234.034,78.686z M230.502,104.438l-3.656-8.968l4.425-2.723
	l3.276,8.158C232.96,101.783,231.58,102.991,230.502,104.438z M225.619,92.464l-3.88-9.516l2.508-7.69l5.813,14.474L225.619,92.464z
	"/>
<path fill="#050505" d="M240.655,117.429c3.007,0,5.444-2.438,5.444-5.444c0-0.11-0.004-0.219-0.011-0.327
	c-0.066-1.127-0.477-2.161-1.126-3.001c-0.996-1.287-2.555-2.117-4.308-2.117c-0.131,0-0.26,0.007-0.389,0.016
	c-1.124,0.079-2.153,0.5-2.986,1.158c-1.26,0.997-2.069,2.539-2.069,4.271C235.211,114.99,237.648,117.429,240.655,117.429z"/>
</svg>
