<?xml version="1.0" encoding="utf-8"?>
<!-- Generator: Adobe Illustrator 16.0.0, SVG Export Plug-In . SVG Version: 6.00 Build 0)  -->
<!DOCTYPE svg PUBLIC "-//W3C//DTD SVG 1.1//EN" "http://www.w3.org/Graphics/SVG/1.1/DTD/svg11.dtd">
<svg version="1.1" id="Layer_1" xmlns="http://www.w3.org/2000/svg" xmlns:xlink="http://www.w3.org/1999/xlink" x="0px" y="0px"
	 width="100.094px" height="55.286px" viewBox="0 0 100.094 55.286" enable-background="new 0 0 100.094 55.286"
	 xml:space="preserve">
<g>
	<g>
		<polygon fill="#383838" points="80.081,54.609 97.738,54.609 98.982,52.76 97.681,51.689 99.919,50.213 100.094,47.305 
			98.571,45.276 99.298,41.932 98.156,39.698 95.999,39.573 93.562,36.844 91.502,32.816 88.422,33.168 86.128,31.001 
			83.892,32.144 83.099,30.592 79.868,29.321 77.536,31.377 77.207,29.38 74.29,28.196 72.404,26.631 70.744,28.895 69.679,29.439 
			77.995,49.558 		"/>
		<polygon fill="#1A1A1A" points="81.754,54.609 82.669,54.609 87.438,52.172 87.454,49.935 87.634,48.266 89.421,48.012 
			90.226,45.588 90.599,43.076 92.658,41.458 91.251,39.108 92.561,36.653 92.706,35.174 91.502,32.816 88.422,33.168 
			86.128,31.001 83.892,32.144 83.099,30.592 79.868,29.321 77.536,31.377 77.207,29.38 74.29,28.196 72.404,26.631 70.744,28.895 
			69.679,29.439 77.995,49.558 		"/>
	</g>
	<g>
		<rect x="54.203" y="34.549" fill="#383838" width="19.668" height="6.369"/>
		<polygon fill="#FFA20D" points="64.037,14.476 69.337,14.476 79.742,49.092 86.642,54.622 71.554,54.622 		"/>
		<path fill="#143542" d="M37.041,16.908v7.811c0,1.641,0.941,2.971,2.104,2.971c1.164,0,2.105-1.33,2.105-2.971v-7.811H37.041z"/>
		<path fill="#143542" d="M44.228,20.05v7.669c0,1.004,0.941,1.818,2.105,1.818c1.163,0,2.104-0.814,2.104-1.818v-6.013l1.988-0.407
			v-4.391L44.228,20.05z"/>
		<path fill="#143542" d="M15.6,0.149C15.39,0.055,15.157,0,14.911,0H5.125C4.198,0,3.443,0.752,3.443,1.682
			s0.755,1.683,1.682,1.683h4.248v24.457c0,2.027,1.644,3.67,3.67,3.67h15.494c2.028,0,3.67-1.643,3.67-3.67V1.521
			C32.207,0.189,22.361-0.268,15.6,0.149z"/>
		<rect x="12.694" y="4.171" fill="#FFFFFF" width="16.312" height="16.311"/>
		<path fill="#FFA20D" d="M56.236,38.548c0,1.56-1.644,2.823-3.67,2.823H6.53c-2.029,0-3.67-1.264-3.67-2.823v-10.35
			c0-1.56,1.641-2.823,3.67-2.823h46.036c2.026,0,3.67,1.264,3.67,2.823V38.548z"/>
		<g>
			<path fill="#143542" d="M51.224,41.42c2.932,0,5.318,2.386,5.318,5.318c0,2.934-2.387,5.317-5.318,5.317H7.87
				c-2.932,0-5.316-2.384-5.316-5.317c0-2.933,2.385-5.318,5.316-5.318H51.224L51.224,41.42z M51.224,38.869H7.87
				c-4.346,0-7.87,3.522-7.87,7.869c0,4.346,3.524,7.871,7.87,7.871h43.354c4.346,0,7.87-3.525,7.87-7.871
				C59.094,42.392,55.569,38.869,51.224,38.869L51.224,38.869z"/>
			<circle fill="#1A1A1A" cx="7.994" cy="46.738" r="5.53"/>
			<circle fill="#1A1A1A" cx="51.243" cy="46.738" r="5.531"/>
		</g>
	</g>
</g>
</svg>
