<?xml version="1.0" encoding="utf-8"?>
<!-- Generator: Adobe Illustrator 16.0.0, SVG Export Plug-In . SVG Version: 6.00 Build 0)  -->
<!DOCTYPE svg PUBLIC "-//W3C//DTD SVG 1.1//EN" "http://www.w3.org/Graphics/SVG/1.1/DTD/svg11.dtd">
<svg version="1.1" id="Layer_1" xmlns="http://www.w3.org/2000/svg" xmlns:xlink="http://www.w3.org/1999/xlink" x="0px" y="0px"
	 width="100.909px" height="99.131px" viewBox="0 0 100.909 99.131" enable-background="new 0 0 100.909 99.131"
	 xml:space="preserve">
<g>
	<g>
		<g>
			<g>
				<path fill="#005B83" d="M50.813,68.104c-1.254,0-2.27-1.015-2.27-2.27V54.87c0-1.252,1.016-2.267,2.27-2.267
					c1.252,0,2.269,1.015,2.269,2.267v10.965C53.081,67.09,52.064,68.104,50.813,68.104z"/>
			</g>
			<g>
				<g>
					<path fill="#00CFDD" d="M68.034,46.101c0,0.804-0.654,1.455-1.455,1.455h-32.36c-0.804,0-1.456-0.651-1.456-1.455v-26.77
						c0-0.801,0.652-1.45,1.456-1.45h32.36c0.801,0,1.455,0.649,1.455,1.45V46.101z"/>
				</g>
				<g>
					<path fill="#005B83" d="M69.671,19.052c0,0.804-0.653,1.453-1.458,1.453H33.126c-0.802,0-1.455-0.649-1.455-1.453V6.511
						c0-0.81,0.653-1.458,1.455-1.458h35.087c0.805,0,1.458,0.648,1.458,1.458V19.052z"/>
				</g>
				<g>
					<path fill="#005B83" d="M69.671,36.89c0,0.802-0.653,1.456-1.458,1.456H33.126c-0.802,0-1.455-0.654-1.455-1.456V24.346
						c0-0.804,0.653-1.458,1.455-1.458h35.087c0.805,0,1.458,0.654,1.458,1.458V36.89z"/>
				</g>
				<g>
					<path fill="#005B83" d="M69.671,54.726c0,0.804-0.653,1.455-1.458,1.455H33.126c-0.802,0-1.455-0.651-1.455-1.455V42.184
						c0-0.804,0.653-1.455,1.455-1.455h35.087c0.805,0,1.458,0.651,1.458,1.455V54.726z"/>
				</g>
				<g>
					<path fill="#FA7A49" d="M38.378,11.705c0,0.588-0.47,1.064-1.06,1.064h-1.856c-0.588,0-1.062-0.477-1.062-1.064V9.852
						c0-0.585,0.474-1.062,1.062-1.062h1.856c0.59,0,1.06,0.477,1.06,1.062V11.705z"/>
				</g>
				<g>
					<path fill="#00CFDD" d="M43.834,11.705c0,0.588-0.476,1.064-1.063,1.064h-1.852c-0.589,0-1.066-0.477-1.066-1.064V9.852
						c0-0.585,0.478-1.062,1.066-1.062h1.852c0.588,0,1.063,0.477,1.063,1.062V11.705z"/>
				</g>
				<g>
					<path fill="#FFFFFF" d="M67.124,15.336c0,0.798-0.652,1.452-1.455,1.452H46.761c-0.801,0-1.454-0.654-1.454-1.452v-5.091
						c0-0.804,0.653-1.455,1.454-1.455h18.908c0.803,0,1.455,0.651,1.455,1.455V15.336z"/>
				</g>
				<g>
					<path fill="#FA7A49" d="M38.378,29.535c0,0.589-0.47,1.065-1.06,1.065h-1.856c-0.588,0-1.062-0.477-1.062-1.065v-1.853
						c0-0.589,0.474-1.065,1.062-1.065h1.856c0.59,0,1.06,0.477,1.06,1.065V29.535z"/>
				</g>
				<g>
					<path fill="#00CFDD" d="M43.834,29.535c0,0.589-0.476,1.065-1.063,1.065h-1.852c-0.589,0-1.066-0.477-1.066-1.065v-1.853
						c0-0.589,0.478-1.065,1.066-1.065h1.852c0.588,0,1.063,0.477,1.063,1.065V29.535z"/>
				</g>
				<g>
					<path fill="#FFFFFF" d="M67.124,33.161c0,0.804-0.652,1.455-1.455,1.455H46.761c-0.801,0-1.454-0.651-1.454-1.455v-5.089
						c0-0.801,0.653-1.455,1.454-1.455h18.908c0.803,0,1.455,0.654,1.455,1.455V33.161z"/>
				</g>
				<g>
					<path fill="#FA7A49" d="M38.378,47.371c0,0.588-0.47,1.067-1.06,1.067h-1.856c-0.588,0-1.062-0.479-1.062-1.067v-1.851
						c0-0.589,0.474-1.063,1.062-1.063h1.856c0.59,0,1.06,0.474,1.06,1.063V47.371z"/>
				</g>
				<g>
					<path fill="#00CFDD" d="M43.834,47.371c0,0.588-0.476,1.067-1.063,1.067h-1.852c-0.589,0-1.066-0.479-1.066-1.067v-1.851
						c0-0.589,0.478-1.063,1.066-1.063h1.852c0.588,0,1.063,0.474,1.063,1.063V47.371z"/>
				</g>
				<g>
					<path fill="#FFFFFF" d="M67.124,50.999c0,0.804-0.652,1.457-1.455,1.457H46.761c-0.801,0-1.454-0.653-1.454-1.457V45.91
						c0-0.804,0.653-1.452,1.454-1.452h18.908c0.803,0,1.455,0.648,1.455,1.452V50.999z"/>
				</g>
			</g>
			<g>
				<g>
					<path fill="#005B83" d="M25.929,89.024c0,1.687-1.366,3.053-3.053,3.053H4.827c-1.686,0-3.053-1.366-3.053-3.053V42.052
						c0-1.684,1.367-3.05,3.053-3.05h18.049c1.687,0,3.053,1.366,3.053,3.05V89.024z"/>
				</g>
				<g>
					<path fill="#FFFFFF" d="M22.138,43.669c0,0.419-0.339,0.759-0.76,0.759H5.991c-0.419,0-0.762-0.34-0.762-0.759l0,0
						c0-0.423,0.343-0.766,0.762-0.766h15.387C21.799,42.903,22.138,43.246,22.138,43.669L22.138,43.669z"/>
				</g>
				<g>
					<path fill="#FFFFFF" d="M22.138,45.88c0,0.424-0.339,0.764-0.76,0.764H5.991c-0.419,0-0.762-0.34-0.762-0.764l0,0
						c0-0.418,0.343-0.761,0.762-0.761h15.387C21.799,45.119,22.138,45.462,22.138,45.88L22.138,45.88z"/>
				</g>
				<g>
					<path fill="#FFFFFF" d="M22.138,48.099c0,0.421-0.339,0.763-0.76,0.763H5.991c-0.419,0-0.762-0.342-0.762-0.763l0,0
						c0-0.416,0.343-0.758,0.762-0.758h15.387C21.799,47.341,22.138,47.683,22.138,48.099L22.138,48.099z"/>
				</g>
				<g>
					<path fill="#FFFFFF" d="M22.138,87.235c0,1.103-0.896,1.995-1.994,1.995H7.227c-1.102,0-1.997-0.893-1.997-1.995v-16.53
						c0-1.103,0.896-1.995,1.997-1.995h12.917c1.099,0,1.994,0.893,1.994,1.995V87.235z"/>
				</g>
				<g>
					<path fill="#005B83" d="M20.117,75.167c0,1.104-0.894,1.995-1.994,1.995h-1.474c-1.102,0-1.993-0.892-1.993-1.995v-1.473
						c0-1.101,0.892-1.993,1.993-1.993h1.474c1.101,0,1.994,0.893,1.994,1.993V75.167z"/>
				</g>
				<g>
					<path fill="#FA7A49" d="M8.596,53.519c0,0.464-0.376,0.845-0.843,0.845H6.28c-0.464,0-0.844-0.381-0.844-0.845v-1.471
						c0-0.464,0.38-0.844,0.844-0.844h1.473c0.467,0,0.843,0.38,0.843,0.844V53.519z"/>
				</g>
				<g>
					<path fill="#00CFDD" d="M12.922,53.519c0,0.464-0.378,0.845-0.843,0.845h-1.474c-0.465,0-0.841-0.381-0.841-0.845v-1.471
						c0-0.464,0.376-0.844,0.841-0.844h1.474c0.465,0,0.843,0.38,0.843,0.844V53.519z"/>
				</g>
			</g>
			<g>
				<g>
					<path fill="#005B83" d="M99.038,89.024c0,1.687-1.365,3.053-3.052,3.053H77.936c-1.685,0-3.053-1.366-3.053-3.053V42.052
						c0-1.684,1.368-3.05,3.053-3.05h18.051c1.687,0,3.052,1.366,3.052,3.05V89.024z"/>
				</g>
				<g>
					<path fill="#FFFFFF" d="M95.247,43.669c0,0.419-0.34,0.759-0.76,0.759H79.102c-0.421,0-0.759-0.34-0.759-0.759l0,0
						c0-0.423,0.338-0.766,0.759-0.766h15.386C94.907,42.903,95.247,43.246,95.247,43.669L95.247,43.669z"/>
				</g>
				<g>
					<path fill="#FFFFFF" d="M95.247,45.88c0,0.424-0.34,0.764-0.76,0.764H79.102c-0.421,0-0.759-0.34-0.759-0.764l0,0
						c0-0.418,0.338-0.761,0.759-0.761h15.386C94.907,45.119,95.247,45.462,95.247,45.88L95.247,45.88z"/>
				</g>
				<g>
					<path fill="#FFFFFF" d="M95.247,48.099c0,0.421-0.34,0.763-0.76,0.763H79.102c-0.421,0-0.759-0.342-0.759-0.763l0,0
						c0-0.416,0.338-0.758,0.759-0.758h15.386C94.907,47.341,95.247,47.683,95.247,48.099L95.247,48.099z"/>
				</g>
				<g>
					<path fill="#FFFFFF" d="M95.247,87.235c0,1.103-0.894,1.995-1.995,1.995H80.337c-1.104,0-1.994-0.893-1.994-1.995v-16.53
						c0-1.103,0.891-1.995,1.994-1.995h12.915c1.102,0,1.995,0.893,1.995,1.995V87.235z"/>
				</g>
				<g>
					<path fill="#005B83" d="M93.227,75.167c0,1.104-0.895,1.995-1.996,1.995h-1.472c-1.1,0-1.994-0.892-1.994-1.995v-1.473
						c0-1.101,0.895-1.993,1.994-1.993h1.472c1.102,0,1.996,0.893,1.996,1.993V75.167z"/>
				</g>
				<g>
					<path fill="#FA7A49" d="M81.707,53.519c0,0.464-0.376,0.845-0.845,0.845h-1.472c-0.464,0-0.842-0.381-0.842-0.845v-1.471
						c0-0.464,0.378-0.844,0.842-0.844h1.472c0.469,0,0.845,0.38,0.845,0.844V53.519z"/>
				</g>
				<g>
					<path fill="#00CFDD" d="M86.03,53.519c0,0.464-0.379,0.845-0.842,0.845h-1.47c-0.47,0-0.846-0.381-0.846-0.845v-1.471
						c0-0.464,0.376-0.844,0.846-0.844h1.47c0.463,0,0.842,0.38,0.842,0.844V53.519z"/>
				</g>
			</g>
			<g>
				<path fill="#005B83" d="M76.827,68.629H26.74c-1.253,0-2.27-1.015-2.27-2.27c0-1.252,1.017-2.269,2.27-2.269h50.087
					c1.254,0,2.27,1.017,2.27,2.269C79.097,67.614,78.081,68.629,76.827,68.629z"/>
			</g>
		</g>
	</g>
</g>
</svg>
