<?xml version="1.0" encoding="utf-8"?>
<!-- Generator: Adobe Illustrator 16.0.0, SVG Export Plug-In . SVG Version: 6.00 Build 0)  -->
<!DOCTYPE svg PUBLIC "-//W3C//DTD SVG 1.1//EN" "http://www.w3.org/Graphics/SVG/1.1/DTD/svg11.dtd">
<svg version="1.1" id="Layer_1" xmlns="http://www.w3.org/2000/svg" xmlns:xlink="http://www.w3.org/1999/xlink" x="0px" y="0px"
	 width="203.615px" height="139.519px" viewBox="0 0 203.615 139.519" enable-background="new 0 0 203.615 139.519"
	 xml:space="preserve">
<g>
	<g>
		<g>
			<g>
				<g>
					<rect x="123.413" y="0.889" fill="#404041" width="8.15" height="129.709"/>
				</g>
			</g>
			<g>
				<g>
					<path fill="#1B75BB" d="M7.491,67.105v46.242h48.076V40.663H33.934C19.329,40.663,7.491,52.502,7.491,67.105z"/>
				</g>
				<polygon fill="#BBBDBF" points="117.414,65.334 85.706,22.48 46.86,22.426 46.86,113.348 117.414,113.376 				"/>
				<g>
					<polygon fill="#404041" points="81.474,30.625 59.948,30.625 59.948,93.77 103.106,93.77 103.106,59.863 					"/>
				</g>
				<rect x="117.414" y="91.981" fill="#F4B21A" width="5.999" height="16.309"/>
				<path fill="#404041" d="M117.229,121.66c2.295,0,4.156-1.861,4.156-4.156l0,0c0-2.295-1.861-4.156-4.156-4.156H5.272
					c-2.295,0-4.156,1.861-4.156,4.156l0,0c0,2.295,1.861,4.156,4.156,4.156H117.229z"/>
				<g>
					<circle fill="#404041" cx="27.745" cy="120.652" r="17.221"/>
					<circle fill="#E6E7E8" cx="27.745" cy="120.652" r="10.555"/>
					<circle fill="#404041" cx="27.745" cy="120.652" r="3.397"/>
				</g>
				<g>
					<circle fill="#404041" cx="94.876" cy="120.652" r="17.221"/>
					<circle fill="#E6E7E8" cx="94.876" cy="120.652" r="10.555"/>
					<circle fill="#404041" cx="94.876" cy="120.652" r="3.396"/>
				</g>
			</g>
			<g>
				<path fill="#C3996B" d="M83.987,77.006V93.77H59.948V68.957h15.99C80.384,68.957,83.987,72.561,83.987,77.006z"/>
			</g>
			
				<rect x="88.625" y="65.228" transform="matrix(0.809 0.5878 -0.5878 0.809 57.6623 -45.0896)" fill="#BBBDBF" width="19.19" height="1.929"/>
			<path fill="#BBBDBF" d="M87.182,66.426c-0.171,0-0.344-0.046-0.5-0.142c-0.455-0.277-0.601-0.87-0.323-1.324l6.039-9.924
				c0.277-0.455,0.869-0.601,1.324-0.321c0.455,0.276,0.6,0.87,0.323,1.323l-6.038,9.924C87.825,66.262,87.507,66.426,87.182,66.426
				z"/>
			<polygon fill="#404041" points="124.935,130.474 202.259,130.474 195.427,122.861 124.935,122.861 			"/>
			<g>
				<rect x="131.564" y="63.788" fill="#C3996B" width="61.977" height="59.073"/>
				<polygon fill="#A87C4F" points="165.627,81.316 164.087,79.746 162.548,81.316 161.009,79.746 159.47,81.316 157.93,79.746 
					156.458,81.249 156.457,63.788 168.646,63.788 168.646,81.252 167.167,79.746 				"/>
				<rect x="169.559" y="114.051" fill="#A87C4F" width="5.476" height="5.171"/>
				<rect x="177.013" y="114.051" fill="#A87C4F" width="5.475" height="5.171"/>
				<rect x="184.463" y="114.05" fill="#A87C4F" width="5.477" height="5.171"/>
			</g>
			<g>
				<rect x="139.677" y="20.181" fill="#A87C4F" width="45.75" height="43.606"/>
				<polygon fill="#C3996B" points="163.686,31.961 162.55,33.121 161.413,31.961 160.276,33.121 159.14,31.962 158.054,33.07 
					158.053,20.182 167.05,20.182 167.051,33.073 165.96,31.961 164.821,33.121 				"/>
				<rect x="167.726" y="57.284" fill="#C3996B" width="4.041" height="3.817"/>
				<rect x="173.226" y="57.285" fill="#C3996B" width="4.043" height="3.816"/>
				<rect x="178.728" y="57.284" fill="#C3996B" width="4.041" height="3.816"/>
			</g>
		</g>
	</g>
</g>
</svg>
