<?xml version="1.0" encoding="utf-8"?>
<!-- Generator: Adobe Illustrator 16.0.0, SVG Export Plug-In . SVG Version: 6.00 Build 0)  -->
<!DOCTYPE svg PUBLIC "-//W3C//DTD SVG 1.1//EN" "http://www.w3.org/Graphics/SVG/1.1/DTD/svg11.dtd">
<svg version="1.1" id="Layer_1" xmlns="http://www.w3.org/2000/svg" xmlns:xlink="http://www.w3.org/1999/xlink" x="0px" y="0px"
	 width="85.008px" height="72.579px" viewBox="0 0 85.008 72.579" enable-background="new 0 0 85.008 72.579" xml:space="preserve">
<g>
	<g>
		<polygon fill="#383838" points="13.581,52.549 22.771,48.352 22.979,47.092 22.047,46.844 22.861,45.545 22.261,43.988 
			20.986,43.295 20.568,41.383 19.443,40.49 18.291,40.939 16.373,40.098 14.344,38.492 12.824,39.406 11.115,38.824 10.223,39.949 
			9.441,39.332 7.457,39.438 6.732,41.063 6.086,40.102 4.287,40.18 2.934,39.813 2.606,41.385 2.182,41.922 11.294,50.416 		"/>
		<polygon fill="#1A1A1A" points="14.451,52.152 14.928,51.934 16.83,49.531 16.308,48.363 16.004,47.451 16.874,46.895 
			16.717,45.441 16.313,44.045 17,42.713 15.709,41.826 15.807,40.236 15.531,39.432 14.344,38.492 12.824,39.406 11.115,38.824 
			10.223,39.949 9.441,39.332 7.457,39.438 6.732,41.063 6.086,40.102 4.287,40.18 2.934,39.813 2.606,41.385 2.182,41.922 
			11.294,50.416 		"/>
	</g>
	<polygon fill="#FFFFFF" points="39.424,30.936 35.252,43.543 49.539,43.367 48.93,30.936 	"/>
	<rect x="48.791" y="56.178" fill="#FFA20D" width="17.105" height="3.305"/>
	<polygon fill="#FFA20D" points="43.094,29.377 34.088,15.059 12.303,10.563 12.303,14.783 28.833,21.338 37.92,38.395 
		40.64,30.023 	"/>
	<polygon fill="#143542" points="52.234,43.543 50.988,29.285 38.004,29.285 32.986,43.715 32.921,54.158 53.099,51.992 	"/>
	<polygon fill="#FFFFFF" points="39.424,30.936 35.252,43.543 49.539,43.367 48.93,30.936 	"/>
	<g>
		<polygon fill="#FFA20D" points="0.913,43.381 4.738,0 14.303,11.107 5.269,44.516 		"/>
		<g>
			<polygon fill="#FFA20D" points="0.913,42.096 0.913,53.15 11.559,56.152 24.249,47.828 18.518,48.51 			"/>
		</g>
	</g>
	<g>
		<path fill="#143542" d="M78.574,61.191c2.396,0,4.348,1.951,4.348,4.348c0,2.398-1.951,4.348-4.348,4.348H34.131
			c-2.396,0-4.346-1.949-4.346-4.348c0-2.396,1.949-4.348,4.346-4.348H78.574L78.574,61.191z M78.574,59.107H34.131
			c-3.553,0-6.433,2.879-6.433,6.432s2.88,6.434,6.433,6.434h44.443c3.553,0,6.434-2.881,6.434-6.434S82.127,59.107,78.574,59.107
			L78.574,59.107z"/>
		<circle fill="#1A1A1A" cx="34.232" cy="65.539" r="4.521"/>
		<circle fill="#1A1A1A" cx="78.59" cy="65.539" r="4.521"/>
	</g>
	<path fill="#FFA20D" d="M78.668,45.543c0-1.1-0.9-2-2-2H53.516c-1.101,0-2,0.457-2,1.016c0,0.561-0.9,1.018-2,1.018H34.119
		c-1.1,0-2,0.9-2,2v7.299c0,1.1,0.9,2,2,2h42.549c1.1,0,2-0.9,2-2V45.543z"/>
</g>
</svg>
